<svg xmlns="http://www.w3.org/2000/svg" width="100" height="100" viewBox="0 0 100 100">
  <g id="Grupo_141137" data-name="Grupo 141137" transform="translate(-206 -206)">
    <g id="_Group_" data-name="&lt;Group&gt;">
      <path id="Trazado_199473" data-name="Trazado 199473" d="M295.576,221.174v15.508H271.494V221.205c7.022-.135,9.994-2.914,12.43-5a2.8,2.8,0,0,1,4.092.521,10.376,10.376,0,0,0,7.56,4.444Z" fill="#4e5a61"/>
      <path id="Trazado_199474" data-name="Trazado 199474" d="M286.561,232.812l3.862.977,4.43,1.823a3.906,3.906,0,0,1,2.4,3.237l.412,4.264c.166,1.724-1.232,2.647-2.964,2.643l-21.314-.108a2.93,2.93,0,0,1-2.91-3.2l.39-4.256c.133-1.447,1.757-1.616,3.1-2.169l5.556-3.5Z" fill="#c1eff5"/>
      <path id="Trazado_199475" data-name="Trazado 199475" d="M273.765,243.387a1.468,1.468,0,0,1-1.462-1.6l.247-2.655a.974.974,0,0,1,.6-.811l5.854-2.407a1.459,1.459,0,0,1,.988-.045,10.935,10.935,0,0,0,3.266.5,11.513,11.513,0,0,0,7.164-2.574l-3.069-1.261h-7.83l-3.3,1.357h0l-4.188,1.723a3.9,3.9,0,0,0-2.4,3.252l-.391,4.257a2.93,2.93,0,0,0,2.91,3.2l22.59.007a2.929,2.929,0,0,0,2.937-2.935Z" fill="#4dd0e1"/>
      <g id="Grupo_141138" data-name="Grupo 141138">
        <path id="Trazado_199476" data-name="Trazado 199476" d="M273.97,219.006c.234,7.555,3.124,13.777,8.821,13.777.667,0,1.984.567,2.618.408,4.779-1.194,8.428-6.691,8.623-13.377L283.827,211.4Z" fill="#f7e5c1"/>
        <path id="Trazado_199477" data-name="Trazado 199477" d="M285.408,233.189a7.9,7.9,0,0,1-1.953.243c-5.7,0-10.342-6.028-10.576-13.584l4.066-1.959-.039.473a16.53,16.53,0,0,0,.291,4.862C278.3,228.306,281.471,232.206,285.408,233.189Z" fill="#f4d9b1"/>
      </g>
      <path id="Trazado_199478" data-name="Trazado 199478" d="M283.344,297.377l1.217,2.851-1.1,3.885-19.148.03a1.954,1.954,0,0,1-1.953-1.954l.108-2.859a1.954,1.954,0,0,1,1.953-1.953h18.921Z" fill="#e8f3fc"/>
      <path id="Trazado_199479" data-name="Trazado 199479" d="M241.309,259.217l1.007,3.4-1.007,3.258-31.54-.087a1.954,1.954,0,0,1-1.953-1.953l.258-2.668a1.954,1.954,0,0,1,1.953-1.953h31.282Z" fill="#4dd0e1"/>
      <path id="Trazado_199480" data-name="Trazado 199480" d="M249.848,261.17v2.082l-.36.586a1.954,1.954,0,0,1-1.953,1.953l-6.226.586v-7.16H247.9A1.954,1.954,0,0,1,249.848,261.17Z" fill="#f5fcff"/>
      <path id="Trazado_199481" data-name="Trazado 199481" d="M283.344,259.217l1.465,3.361-1.465,3.516-18.954-.1a1.954,1.954,0,0,1-1.953-1.953l.058-2.61a1.954,1.954,0,0,1,1.953-1.953l.829-.261Z" fill="#4dd0e1"/>
      <path id="Trazado_199482" data-name="Trazado 199482" d="M304.535,261.17v2.082l-.492.415a1.954,1.954,0,0,1-1.953,1.953l-18.746.757v-7.16h19.238A1.954,1.954,0,0,1,304.535,261.17Z" fill="#f5fcff"/>
      <path id="Trazado_199483" data-name="Trazado 199483" d="M241.309,263.252l1.239,1.562-1.239,1.563H209.418a1.954,1.954,0,0,1-1.953-1.953V261.17a1.954,1.954,0,0,1,1.953-1.953h1.172V261.3a1.954,1.954,0,0,0,1.953,1.953Z" fill="#3da6b4"/>
      <path id="Trazado_199484" data-name="Trazado 199484" d="M249.848,263.252v1.172a1.954,1.954,0,0,1-1.953,1.953h-6.586v-3.125Z" fill="#e6f7fe"/>
      <path id="Trazado_199485" data-name="Trazado 199485" d="M283.344,263.252l1.566,1.562-1.566,1.563H264.105a1.954,1.954,0,0,1-1.953-1.953V261.17a1.954,1.954,0,0,1,1.953-1.953h1.172V261.3a1.954,1.954,0,0,0,1.953,1.953Z" fill="#3da6b4"/>
      <path id="Trazado_199486" data-name="Trazado 199486" d="M304.535,263.252v1.172a1.954,1.954,0,0,1-1.953,1.953H283.344v-3.125Z" fill="#e6f7fe"/>
      <path id="Trazado_199487" data-name="Trazado 199487" d="M222.152,278.3l.849,3.239-.849,3.919-12.516-.586a1.952,1.952,0,0,1-1.953-1.953l.133-2.477a1.954,1.954,0,0,1,1.953-1.953l1.016-.189Z" fill="#feedb6"/>
      <path id="Trazado_199488" data-name="Trazado 199488" d="M249.848,280.25v2.08l-.46.586a1.952,1.952,0,0,1-1.953,1.953l-25.283.586V278.3H247.9A1.954,1.954,0,0,1,249.848,280.25Z" fill="#f5fcff"/>
      <path id="Trazado_199489" data-name="Trazado 199489" d="M293.711,278.3l.716,3.954-.716,2.767-29.072-.149a1.952,1.952,0,0,1-1.953-1.953l-.141-2.436a1.954,1.954,0,0,1,1.953-1.953l.975-.23Z" fill="#feedb6"/>
      <path id="Trazado_199490" data-name="Trazado 199490" d="M304.535,280.25v2.08l-.193.86a1.953,1.953,0,0,1-1.953,1.953l-8.678-.124V278.3h8.871A1.954,1.954,0,0,1,304.535,280.25Z" fill="#f5fcff"/>
      <path id="Trazado_199491" data-name="Trazado 199491" d="M222.152,282.33l.716,1.563-.716,1.562H209.418a1.952,1.952,0,0,1-1.953-1.953V280.25a1.954,1.954,0,0,1,1.953-1.953h1.367v2.08a1.952,1.952,0,0,0,1.953,1.953Z" fill="#feca2e"/>
      <path id="Trazado_199492" data-name="Trazado 199492" d="M249.848,282.33V283.5a1.952,1.952,0,0,1-1.953,1.953H222.152V282.33Z" fill="#e6f7fe"/>
      <path id="Trazado_199493" data-name="Trazado 199493" d="M293.711,282.33l.882,1.334-.882,1.791H264.105a1.952,1.952,0,0,1-1.953-1.953V280.25a1.954,1.954,0,0,1,1.953-1.953h1.368v2.08a1.952,1.952,0,0,0,1.953,1.953Z" fill="#feca2e"/>
      <path id="Trazado_199494" data-name="Trazado 199494" d="M304.535,282.33V283.5a1.952,1.952,0,0,1-1.953,1.953h-8.871V282.33Z" fill="#e6f7fe"/>
      <path id="Trazado_199495" data-name="Trazado 199495" d="M228.656,297.377l.628,2.876-.366,3.823-18.85-.127A1.954,1.954,0,0,1,208.115,302l-.008-2.308a1.954,1.954,0,0,1,1.953-1.953l.53-.358Z" fill="#e8f3fc"/>
      <path id="Trazado_199496" data-name="Trazado 199496" d="M304.535,299.33v2.08l-.442.586a1.954,1.954,0,0,1-1.954,1.953l-18.8.193v-6.765h19.238A1.954,1.954,0,0,1,304.535,299.33Z" fill="#f5fcff"/>
      <path id="Trazado_199497" data-name="Trazado 199497" d="M283.344,301.41l1.217,1.563-1.217,1.562H264.105a1.954,1.954,0,0,1-1.953-1.953V299.33a1.954,1.954,0,0,1,1.953-1.953h1.172v2.08a1.954,1.954,0,0,0,1.953,1.953Z" fill="#bddcf6"/>
      <path id="Trazado_199498" data-name="Trazado 199498" d="M304.535,301.41v1.172a1.954,1.954,0,0,1-1.953,1.953H283.344V301.41Z" fill="#e6f7fe"/>
      <path id="Trazado_199499" data-name="Trazado 199499" d="M249.848,299.33v2.08l-.426.713a1.954,1.954,0,0,1-1.953,1.953l-18.813.459v-7.158H247.9A1.954,1.954,0,0,1,249.848,299.33Z" fill="#f5fcff"/>
      <path id="Trazado_199500" data-name="Trazado 199500" d="M228.656,301.41l.628,1.563-.628,1.562H209.418a1.954,1.954,0,0,1-1.953-1.953V299.33a1.954,1.954,0,0,1,1.953-1.953h1.172v2.08a1.954,1.954,0,0,0,1.953,1.953Z" fill="#bddcf6"/>
      <path id="Trazado_199501" data-name="Trazado 199501" d="M249.848,301.41v1.172a1.954,1.954,0,0,1-1.953,1.953H228.656V301.41Z" fill="#e6f7fe"/>
      <path id="Trazado_199502" data-name="Trazado 199502" d="M231.528,233.441l4.124.348,4.43,1.823a3.9,3.9,0,0,1,2.4,3.237l.412,4.264c.167,1.724-1.232,2.647-2.964,2.643l-22.267-.058c-1.722,0-2.4-1.477-2.244-3.191l.738-3.081a3.9,3.9,0,0,1,2.4-3.253l6.193-3.646Z" fill="#dbdeea"/>
      <path id="Trazado_199503" data-name="Trazado 199503" d="M218.995,243.387a1.469,1.469,0,0,1-1.463-1.6l.247-2.655a.975.975,0,0,1,.6-.811l5.853-2.407a1.46,1.46,0,0,1,.988-.045,10.945,10.945,0,0,0,3.266.5,11.508,11.508,0,0,0,7.164-2.574l-3.068-1.261h-7.83l-3.3,1.357h0l-4.187,1.722a3.906,3.906,0,0,0-2.4,3.252l-.39,4.258a2.928,2.928,0,0,0,2.91,3.2l22.59.008a2.93,2.93,0,0,0,2.937-2.935Z" fill="#abb3cd"/>
      <path id="Trazado_199504" data-name="Trazado 199504" d="M219.206,218.849c.234,7.555,3.586,14.584,9.282,14.584s10.357-6.047,10.578-13.619L228.86,211.4Z" fill="#f7e5c1"/>
      <path id="Trazado_199505" data-name="Trazado 199505" d="M230.441,233.189a7.892,7.892,0,0,1-1.953.243c-5.7,0-10.342-6.028-10.576-13.584l4.066-1.959-.039.473a16.6,16.6,0,0,0,.291,4.862C223.336,228.306,226.505,232.206,230.441,233.189Z" fill="#f4d9b1"/>
      <path id="Trazado_199506" data-name="Trazado 199506" d="M238.451,210.869a6.974,6.974,0,0,0-3.7-2.426,6.587,6.587,0,0,0-2.117-.167,10.506,10.506,0,0,1-3.754-.407,10.067,10.067,0,0,0-5.188-.12,8.759,8.759,0,0,0-5.028,3.683,8.969,8.969,0,0,0-1.067,7.761c.087.309.546-.273.867-.273,3.143,0,7.29.021,10.606-3.14a3.135,3.135,0,0,1,4.71.467c1.374,1.935,2.554,3.368,5.4,3.536a.711.711,0,0,0,.729-.55c.355-1.5.978-5.467-1.457-8.364Z" fill="#5f6c75"/>
      <path id="Trazado_199507" data-name="Trazado 199507" d="M229.426,215.486a3.3,3.3,0,0,0-.358.293c-3.316,3.162-8.287,4.037-11.431,4.035a.71.71,0,0,1-.686-.521,8.967,8.967,0,0,1,1.067-7.762,9.931,9.931,0,0,1,5.673-3.783,9.654,9.654,0,0,1,1.282-.225,8.732,8.732,0,0,0-3.182,2.563,7.4,7.4,0,0,0-.982,6.736.652.652,0,0,0,.632.453A18.471,18.471,0,0,0,229.426,215.486Z" fill="#4e5a61"/>
      <path id="Trazado_199508" data-name="Trazado 199508" d="M230.066,215.139c-.209.123-.421.238-.638.347A3.07,3.07,0,0,1,230.066,215.139Z" fill="#4e5a61"/>
      <path id="Trazado_199509" data-name="Trazado 199509" d="M295.576,219.506v1.668a10.376,10.376,0,0,1-7.56-4.444,2.8,2.8,0,0,0-4.092-.521c-2.258,1.93-4.977,4.459-10.954,4.926-.232.018-.489-.312-.73-.3s.1-.564-.162-.559l-.15-.925a11.547,11.547,0,0,1,11.607-11.886A12.04,12.04,0,0,1,295.576,219.506Z" fill="#5f6c75"/>
      <path id="Trazado_199510" data-name="Trazado 199510" d="M284.445,215.855a2.836,2.836,0,0,0-.521.354c-.6.516-1.24,1.074-1.963,1.625-2.193,1.672-5.186,3.27-10.467,3.371v-1.7a12.037,12.037,0,0,1,8.358-11.467,8.5,8.5,0,0,0-2.25,2.047,7.4,7.4,0,0,0-.983,6.736.653.653,0,0,0,.633.453A18.926,18.926,0,0,0,284.445,215.855Z" fill="#4e5a61"/>
    </g>
    <g id="Grupo_141140" data-name="Grupo 141140">
      <g id="Grupo_141139" data-name="Grupo 141139">
        <path id="Trazado_199511" data-name="Trazado 199511" d="M247.9,257.753H209.418A3.421,3.421,0,0,0,206,261.171v3.252a3.421,3.421,0,0,0,3.418,3.418H247.9a3.421,3.421,0,0,0,3.417-3.418v-3.252A3.421,3.421,0,0,0,247.9,257.753Zm-38.965,6.67v-3.252a.489.489,0,0,1,.488-.488h30.426v4.228H209.418A.489.489,0,0,1,208.93,264.423Zm39.453,0a.489.489,0,0,1-.488.488h-5.121v-4.228H247.9a.489.489,0,0,1,.488.488Z"/>
        <path id="Trazado_199512" data-name="Trazado 199512" d="M302.582,257.753H264.105a3.421,3.421,0,0,0-3.417,3.418v3.252a3.421,3.421,0,0,0,3.417,3.418h38.477A3.421,3.421,0,0,0,306,264.423v-3.252A3.421,3.421,0,0,0,302.582,257.753Zm-38.965,6.67v-3.252a.489.489,0,0,1,.488-.488h17.774v4.228H264.105A.489.489,0,0,1,263.617,264.423Zm39.453,0a.489.489,0,0,1-.488.488H284.809v-4.228h17.773a.489.489,0,0,1,.488.488Z"/>
        <path id="Trazado_199513" data-name="Trazado 199513" d="M247.9,276.832H209.418A3.422,3.422,0,0,0,206,280.25V283.5a3.422,3.422,0,0,0,3.418,3.418h25.039a1.465,1.465,0,1,0,0-2.93H223.618v-4.229H247.9a.489.489,0,0,1,.488.488V283.5a.489.489,0,0,1-.488.488h-6.581a1.465,1.465,0,0,0,0,2.93H247.9a3.422,3.422,0,0,0,3.417-3.418V280.25A3.422,3.422,0,0,0,247.9,276.832Zm-27.207,7.159h-11.27a.489.489,0,0,1-.488-.488V280.25a.489.489,0,0,1,.488-.488h11.27Z"/>
        <path id="Trazado_199514" data-name="Trazado 199514" d="M302.582,276.832H264.105a3.422,3.422,0,0,0-3.417,3.418V283.5a3.422,3.422,0,0,0,3.417,3.418h38.477A3.422,3.422,0,0,0,306,283.5V280.25A3.422,3.422,0,0,0,302.582,276.832ZM263.617,283.5V280.25a.489.489,0,0,1,.488-.488h28.142v4.229H264.105A.489.489,0,0,1,263.617,283.5Zm39.453,0a.489.489,0,0,1-.488.488h-7.4v-4.229h7.4a.489.489,0,0,1,.488.488Z"/>
        <path id="Trazado_199515" data-name="Trazado 199515" d="M247.9,295.912H209.418A3.421,3.421,0,0,0,206,299.33v3.252A3.421,3.421,0,0,0,209.418,306H247.9a3.421,3.421,0,0,0,3.417-3.418V299.33A3.421,3.421,0,0,0,247.9,295.912Zm-38.965,6.67V299.33a.489.489,0,0,1,.488-.488h17.773v4.228H209.418A.489.489,0,0,1,208.93,302.582Zm39.453,0a.489.489,0,0,1-.488.488H230.121v-4.228H247.9a.489.489,0,0,1,.488.488Z"/>
        <path id="Trazado_199516" data-name="Trazado 199516" d="M302.582,295.912h-6.676a1.465,1.465,0,0,0,0,2.93h6.676a.489.489,0,0,1,.488.488v3.252a.489.489,0,0,1-.488.488H284.809v-4.228h4.253a1.465,1.465,0,0,0,0-2.93H264.105a3.421,3.421,0,0,0-3.417,3.418v3.252A3.421,3.421,0,0,0,264.105,306h38.477A3.421,3.421,0,0,0,306,302.582V299.33A3.421,3.421,0,0,0,302.582,295.912Zm-38.965,6.67V299.33a.489.489,0,0,1,.488-.488h17.774v4.228H264.105A.489.489,0,0,1,263.617,302.582Z"/>
        <path id="Trazado_199517" data-name="Trazado 199517" d="M228.656,273.8a1.465,1.465,0,1,0,0-2.93H207.465a1.465,1.465,0,1,0,0,2.93Z"/>
        <path id="Trazado_199518" data-name="Trazado 199518" d="M207.465,254.722h21.191a1.465,1.465,0,0,0,0-2.93H207.465a1.465,1.465,0,1,0,0,2.93Z"/>
        <path id="Trazado_199519" data-name="Trazado 199519" d="M228.656,292.881a1.465,1.465,0,0,0,0-2.93H207.465a1.465,1.465,0,0,0,0,2.93Z"/>
        <path id="Trazado_199520" data-name="Trazado 199520" d="M283.344,273.8a1.465,1.465,0,1,0,0-2.93H262.152a1.465,1.465,0,0,0,0,2.93Z"/>
        <path id="Trazado_199521" data-name="Trazado 199521" d="M262.152,254.722h21.192a1.465,1.465,0,1,0,0-2.93H262.152a1.465,1.465,0,0,0,0,2.93Z"/>
        <path id="Trazado_199522" data-name="Trazado 199522" d="M283.344,292.881a1.465,1.465,0,0,0,0-2.93H262.152a1.465,1.465,0,0,0,0,2.93Z"/>
        <path id="Trazado_199523" data-name="Trazado 199523" d="M244.354,242.972l-.412-4.264a5.355,5.355,0,0,0-3.3-4.451l-5.249-2.16a16.882,16.882,0,0,0,5.085-11.251,2.18,2.18,0,0,0,.859-1.276c.419-1.771,1.086-6.255-1.762-9.643a8.448,8.448,0,0,0-4.472-2.906,8.014,8.014,0,0,0-2.587-.2,9.076,9.076,0,0,1-3.23-.356,11.587,11.587,0,0,0-5.941-.135,11.343,11.343,0,0,0-6.516,4.353,10.227,10.227,0,0,0-1.285,9.01,2.185,2.185,0,0,0,.971,1.273A16.787,16.787,0,0,0,221.7,232.2l-4.994,2.055a5.353,5.353,0,0,0-3.3,4.474l-.39,4.255a4.394,4.394,0,0,0,4.369,4.8h9.906a1.465,1.465,0,0,0,0-2.93h-9.9a1.463,1.463,0,0,1-1.455-1.6l.389-4.255a2.437,2.437,0,0,1,1.5-2.033l6.9-2.839a9.538,9.538,0,0,0,7.7-.075l7.1,2.918a2.437,2.437,0,0,1,1.5,2.023l.412,4.265a1.466,1.466,0,0,1-1.458,1.606h0l-5.848-.014h0a1.465,1.465,0,0,0,0,2.93l5.849.013h.01a4.393,4.393,0,0,0,4.374-4.817Zm-25.145-30.589a8.529,8.529,0,0,1,6.836-3.455,8.812,8.812,0,0,1,2.43.349,11.964,11.964,0,0,0,4.278.46,5.121,5.121,0,0,1,1.646.128,5.561,5.561,0,0,1,2.93,1.947h0c1.725,2.052,1.566,4.855,1.286,6.441-1.634-.259-2.419-1.131-3.642-2.853a4.6,4.6,0,0,0-6.915-.68c-2.644,2.52-6.707,3.513-9.839,3.62a7.114,7.114,0,0,1,.99-5.957Zm3.1,16.193a14.681,14.681,0,0,1-2.833-7.384c2.72-.247,7.251-1.157,10.6-4.352a1.626,1.626,0,0,1,1.295-.444,1.679,1.679,0,0,1,1.21.7c1.272,1.791,2.556,3.336,4.937,3.919a14.75,14.75,0,0,1-2.846,7.551,7.325,7.325,0,0,1-12.366.01Z"/>
        <path id="Trazado_199524" data-name="Trazado 199524" d="M299.125,242.98l-.412-4.265a5.355,5.355,0,0,0-1.677-3.4V219.5a13.41,13.41,0,0,0-1.153-5.468,1.465,1.465,0,1,0-2.679,1.187,10.48,10.48,0,0,1,.9,4.187,9.126,9.126,0,0,1-4.9-3.534,4.313,4.313,0,0,0-2.977-1.764,4.243,4.243,0,0,0-3.256.984l-.277.238a15.113,15.113,0,0,1-9.734,4.332V219.5a10.574,10.574,0,0,1,16.262-8.913,1.465,1.465,0,1,0,1.58-2.468A13.5,13.5,0,0,0,270.031,219.5v15.645a5.35,5.35,0,0,0-1.857,3.585l-.389,4.213a4.523,4.523,0,0,0,4.369,4.851H294.74a4.477,4.477,0,0,0,4.385-4.817ZM290.16,232.1a14.974,14.974,0,0,0,3.946-5.756v7.379Zm-5.557-14.55.273-.233a1.289,1.289,0,0,1,1-.3,1.363,1.363,0,0,1,.95.567A12.144,12.144,0,0,0,292.3,221.9c-.9,5.739-4.571,9.936-8.857,9.936-4.128,0-7.726-3.961-8.764-9.423A17.984,17.984,0,0,0,284.6,217.555Zm-11.643,9.226a15.624,15.624,0,0,0,2.418,3.962,13.089,13.089,0,0,0,1.339,1.363l-3.757,1.545v-6.87Zm22.874,17.607a1.465,1.465,0,0,1-1.09.479H272.157a1.553,1.553,0,0,1-1.455-1.652l.389-4.212a2.433,2.433,0,0,1,1.5-2.033l7.169-2.949a9.432,9.432,0,0,0,7.353,0l7.179,2.953A2.437,2.437,0,0,1,295.8,239l.412,4.265a1.447,1.447,0,0,1-.375,1.126Z"/>
      </g>
    </g>
  </g>
</svg>
