<svg xmlns="http://www.w3.org/2000/svg" width="45.038" height="50" viewBox="0 0 45.038 50">
  <g id="_Group_" data-name="&lt;Group&gt;" transform="translate(-231.479 -229)" opacity="0.5">
    <path id="_7" data-name="7" d="M265.585,244.882a10.934,10.934,0,1,1-7.729,3.2,10.916,10.916,0,0,1,7.729-3.2Zm6.626,4.307a9.376,9.376,0,1,0,2.744,6.629A9.342,9.342,0,0,0,272.211,249.189Z" fill="#4dd0e1"/>
    <path id="_6" data-name="6" d="M255.765,237.069a.781.781,0,1,1,0-1.562h7.659a2.938,2.938,0,0,1,2.075.864h0v0a2.929,2.929,0,0,1,.864,2.075v3.663a.781.781,0,0,1-1.562,0v-3.664a1.374,1.374,0,0,0-.4-.974l-.005,0a1.377,1.377,0,0,0-.974-.4Zm9.039,32.076a.781.781,0,1,1,1.562,0v6.913A2.95,2.95,0,0,1,263.424,279h-29a2.95,2.95,0,0,1-2.942-2.942V238.449a2.95,2.95,0,0,1,2.942-2.942h7.659a.781.781,0,0,1,0,1.562h-7.659a1.379,1.379,0,0,0-1.376,1.38v37.608a1.379,1.379,0,0,0,1.376,1.38h29a1.369,1.369,0,0,0,.974-.406v0a1.386,1.386,0,0,0,.406-.978Z" fill="#4dd0e1"/>
    <path id="_5" data-name="5" d="M259.082,239.936a.783.783,0,0,1,0-1.565h2.926a.782.782,0,0,1,.781.781v3.178a.781.781,0,0,1-1.562,0v-2.393h-2.145Zm2.145,28.972a.781.781,0,0,1,1.562,0v6.179a.783.783,0,0,1-.781.781H235.841a.784.784,0,0,1-.785-.781V239.152a.783.783,0,0,1,.785-.781h2.547a.783.783,0,0,1,0,1.565h-1.766v34.37h24.606Z" fill="#4dd0e1"/>
    <path id="_4" data-name="4" d="M243.642,233.33h2.228v-1.278a3.046,3.046,0,0,1,.9-2.157l0,0a3.049,3.049,0,0,1,5.206,2.153v1.278H254.2a2.346,2.346,0,0,1,1.653.686l0,0a2.349,2.349,0,0,1,.686,1.652v2.9a1.546,1.546,0,0,1-.461,1.1l0,0a1.568,1.568,0,0,1-1.1.458H242.861a1.551,1.551,0,0,1-1.1-.458h0a1.572,1.572,0,0,1-.458-1.1v-2.9a2.342,2.342,0,0,1,2.343-2.342Zm2.228,1.562h-2.228a.77.77,0,0,0-.548.229.785.785,0,0,0-.233.552v2.895h12.123v-2.895a.78.78,0,0,0-.781-.781h-2.228a1.553,1.553,0,0,1-1.1-.457v0a1.546,1.546,0,0,1-.458-1.1v-1.279a1.494,1.494,0,0,0-1.491-1.49,1.494,1.494,0,0,0-1.486,1.49v1.278a1.559,1.559,0,0,1-.462,1.1,1.538,1.538,0,0,1-1.1.458Z" fill="#4dd0e1"/>
    <path id="_3" data-name="3" d="M263.444,252.848a.781.781,0,1,1-1.562,0v-.721a3.072,3.072,0,0,1,1.136-2.347,4.058,4.058,0,0,1,5.134,0,3.07,3.07,0,0,1,1.136,2.347v.737a3.681,3.681,0,0,1-.367,1.625,4.164,4.164,0,0,1-1.056,1.341l-.7.6a2.594,2.594,0,0,0-.667.837,2.108,2.108,0,0,0-.209.95v.738a.781.781,0,0,1-1.562,0v-.738a3.715,3.715,0,0,1,.367-1.629,4.19,4.19,0,0,1,1.057-1.341l.7-.6a2.585,2.585,0,0,0,.666-.836,2.139,2.139,0,0,0,.209-.947v-.737a1.543,1.543,0,0,0-.579-1.156,2.529,2.529,0,0,0-3.124,0,1.53,1.53,0,0,0-.579,1.156Z" fill="#4dd0e1"/>
    <circle id="_2" data-name="2" cx="0.781" cy="0.781" r="0.781" transform="translate(264.847 261.056)" fill="#4dd0e1"/>
    <path id="_1" data-name="1" d="M241.007,245.84a.78.78,0,1,1,0-1.561h1.258a.78.78,0,1,1,0,1.561Zm5.513,0a.78.78,0,0,1,0-1.561h9.056a.78.78,0,0,1,0,1.561Zm-5.513,23.8a.781.781,0,1,1,0-1.562h1.258a.781.781,0,1,1,0,1.562Zm5.513,0a.781.781,0,0,1,0-1.562h12.645a.781.781,0,0,1,0,1.562Zm-5.513-4.76a.781.781,0,0,1,0-1.562h1.258a.781.781,0,1,1,0,1.562Zm5.513,0a.781.781,0,0,1,0-1.562h6.709a.781.781,0,0,1,0,1.562Zm-5.513-4.76a.781.781,0,0,1,0-1.562h1.258a.781.781,0,1,1,0,1.562Zm5.513,0a.781.781,0,0,1,0-1.562h4.441a.781.781,0,0,1,0,1.562Zm-5.513-4.761a.783.783,0,0,1,0-1.566h1.258a.783.783,0,0,1,0,1.566Zm5.513,0a.783.783,0,0,1,0-1.566h4.441a.783.783,0,0,1,0,1.566Zm-5.513-4.764a.781.781,0,1,1,0-1.561h1.258a.781.781,0,1,1,0,1.561Zm5.513,0a.781.781,0,0,1,0-1.561h5.316a.781.781,0,1,1,0,1.561Z" fill="#4dd0e1"/>
  </g>
</svg>
