<svg id="Grupo_146212" data-name="Grupo 146212" xmlns="http://www.w3.org/2000/svg" width="33.356" height="39" viewBox="0 0 33.356 39">
  <path id="Trazado_724" data-name="Trazado 724" d="M3.083-.049l16.486,0c1.071,1.085,7.507,7.586,9.758,9.865v26a3.1,3.1,0,0,1-3.083,3.122H3.083A3.1,3.1,0,0,1,0,35.815V3.073A3.1,3.1,0,0,1,3.083-.049Z" transform="translate(4.029 0.063)" fill="#fff"/>
  <g id="Grupo_1192" data-name="Grupo 1192">
    <path id="Trazado_722" data-name="Trazado 722" d="M1489.258,662.327h-16.433a3.214,3.214,0,0,0-3.191,3.231v32.524a3.215,3.215,0,0,0,3.191,3.231h22.946a3.215,3.215,0,0,0,3.191-3.231v-25.93Zm7.911,35.754a1.409,1.409,0,0,1-1.4,1.416h-22.946a1.408,1.408,0,0,1-1.4-1.416V665.558a1.409,1.409,0,0,1,1.4-1.416h15.691l.009.009V672.9h8.639l.006.005Z" transform="translate(-1465.633 -662.327)" fill="#f47c26"/>
    <path id="Trazado_723" data-name="Trazado 723" d="M1448.312,944.883a1.244,1.244,0,0,1-1.2,1.278h-26.38a1.244,1.244,0,0,1-1.2-1.278V932.1a1.244,1.244,0,0,1,1.2-1.278h26.38a1.244,1.244,0,0,1,1.2,1.278Z" transform="translate(-1419.534 -912.888)" fill="#f47c26"/>
    <text id="IPYNB" transform="translate(14.178 28)" fill="#f8f8f8" font-size="7" font-family="SegoeUI, Segoe UI" letter-spacing="0.04em" style="isolation: isolate"><tspan x="-10.011" y="0">IPYNB</tspan></text>
  </g>
</svg>
