<svg xmlns="http://www.w3.org/2000/svg" width="190" height="115" viewBox="0 0 190 115">
  <g id="Grupo_141006" data-name="Grupo 141006" transform="translate(-180 -399)">
    <rect id="Rectángulo_43992" data-name="Rectángulo 43992" width="190" height="115" transform="translate(180 399)" fill="none"/>
    <rect id="Rectángulo_41430" data-name="Rectángulo 41430" width="85" height="28" rx="14" transform="translate(285 407)" fill="#feca2e" opacity="0.2"/>
    <rect id="Rectángulo_41431" data-name="Rectángulo 41431" width="85" height="28" rx="14" transform="translate(180 468)" fill="#4dd0e1" opacity="0.2"/>
    <g id="Grupo_141004" data-name="Grupo 141004" transform="translate(-118 -122)">
      <g id="Grupo_141005" data-name="Grupo 141005" transform="translate(343 529)">
        <g id="Grupo_141004-2" data-name="Grupo 141004">
          <path id="Trazado_199374" data-name="Trazado 199374" d="M46.039,51.922a5.882,5.882,0,1,0-5.882-5.882A5.889,5.889,0,0,0,46.039,51.922Zm0-7.843a1.961,1.961,0,1,1-1.961,1.961A1.963,1.963,0,0,1,46.039,44.078Z" transform="translate(-32.314 -32.314)" fill="#0f2771"/>
          <path id="Trazado_199375" data-name="Trazado 199375" d="M126.353,51.922a5.882,5.882,0,1,0-5.882-5.882A5.889,5.889,0,0,0,126.353,51.922Zm0-7.843a1.961,1.961,0,1,1-1.961,1.961A1.963,1.963,0,0,1,126.353,44.078Z" transform="translate(-96.941 -32.314)" fill="#0f2771"/>
          <path id="Trazado_199376" data-name="Trazado 199376" d="M206.666,51.922a5.882,5.882,0,1,0-5.882-5.882A5.889,5.889,0,0,0,206.666,51.922Zm0-7.843a1.961,1.961,0,1,1-1.961,1.961A1.963,1.963,0,0,1,206.666,44.078Z" transform="translate(-161.568 -32.314)" fill="#0f2771"/>
          <path id="Trazado_199377" data-name="Trazado 199377" d="M323.216,64.157h25.49a1.961,1.961,0,0,0,0-3.922h-25.49a1.961,1.961,0,0,0,0,3.922Z" transform="translate(-258.51 -48.47)" fill="#0f2771"/>
          <path id="Trazado_199378" data-name="Trazado 199378" d="M92.157,0H7.843A7.852,7.852,0,0,0,0,7.843V92.157A7.852,7.852,0,0,0,7.843,100H92.157A7.852,7.852,0,0,0,100,92.157V7.843A7.852,7.852,0,0,0,92.157,0ZM7.843,3.921H92.157a3.926,3.926,0,0,1,3.922,3.922V23.529H3.921V7.843A3.926,3.926,0,0,1,7.843,3.921ZM92.157,96.079H7.843a3.926,3.926,0,0,1-3.922-3.922V27.451H96.079V92.157A3.926,3.926,0,0,1,92.157,96.079Z" fill="#0f2771"/>
        </g>
        <g id="OUTLINE" transform="translate(9.007 28.846)">
          <path id="Trazado_199379" data-name="Trazado 199379" d="M269.254,329.2h7.067v-6.544l1.178-1.063v-6.11a3.516,3.516,0,0,0-2.056-3.21,3.521,3.521,0,0,0,.878-2.336v-.483a3.515,3.515,0,0,0-1.954-3.161,3.55,3.55,0,0,0-3.16,0,3.515,3.515,0,0,0-1.953,3.161v.483a3.521,3.521,0,0,0,.878,2.336,3.515,3.515,0,0,0-2.056,3.21v6.11l1.178,1.063Zm2.356-19.746a1.178,1.178,0,1,1,2.356,0v.483a1.172,1.172,0,0,1-.74,1.094l-.437.175-.437-.175a1.172,1.172,0,0,1-.74-1.094Zm-1.178,6.028a1.172,1.172,0,0,1,.74-1.094l1.615-.646,1.615.646a1.172,1.172,0,0,1,.74,1.094v5.063l-1.178,1.063v5.235H271.61V321.61l-1.178-1.063Z" transform="translate(-224.725 -275.019)" fill="#0f2771"/>
          <path id="Trazado_199380" data-name="Trazado 199380" d="M329.56,329.2h7.067v-6.544l1.178-1.063v-6.11a3.516,3.516,0,0,0-2.056-3.21,3.521,3.521,0,0,0,.878-2.336v-.483a3.515,3.515,0,0,0-1.953-3.161,3.551,3.551,0,0,0-3.161,0,3.515,3.515,0,0,0-1.953,3.161v.483a3.521,3.521,0,0,0,.878,2.336,3.515,3.515,0,0,0-2.056,3.21v6.11l1.178,1.063Zm2.356-19.746a1.178,1.178,0,1,1,2.356,0v.483a1.172,1.172,0,0,1-.74,1.094l-.437.175-.437-.175a1.172,1.172,0,0,1-.74-1.094Zm-1.178,6.028a1.172,1.172,0,0,1,.74-1.094l1.615-.646,1.615.646a1.173,1.173,0,0,1,.74,1.094v5.063l-1.178,1.063v5.235h-2.356V321.61l-1.178-1.063Z" transform="translate(-273.252 -275.019)" fill="#0f2771"/>
          <path id="Trazado_199381" data-name="Trazado 199381" d="M389.866,329.2h7.067v-6.544l1.178-1.063v-6.11a3.515,3.515,0,0,0-2.056-3.21,3.521,3.521,0,0,0,.878-2.336v-.483a3.515,3.515,0,0,0-1.953-3.161,3.551,3.551,0,0,0-3.161,0,3.515,3.515,0,0,0-1.953,3.161v.483a3.521,3.521,0,0,0,.878,2.336,3.515,3.515,0,0,0-2.056,3.21v6.11l1.178,1.063Zm2.356-19.746a1.178,1.178,0,1,1,2.356,0v.483a1.172,1.172,0,0,1-.74,1.094l-.437.175-.437-.175a1.172,1.172,0,0,1-.74-1.094Zm-1.178,6.028a1.172,1.172,0,0,1,.74-1.094l1.615-.646,1.615.646a1.172,1.172,0,0,1,.74,1.094v5.063l-1.178,1.063v5.235h-2.356V321.61l-1.178-1.063Z" transform="translate(-321.779 -275.019)" fill="#0f2771"/>
          <path id="Trazado_199382" data-name="Trazado 199382" d="M291.915,171.251a11.779,11.779,0,1,0-11.779-11.779A11.779,11.779,0,0,0,291.915,171.251Zm1.178-21.125a9.415,9.415,0,0,1,7.372,13.3l-7.372-4.607Zm6.121,15.3a9.409,9.409,0,0,1-14.6,0l7.3-4.562Zm-16.722-5.951a9.435,9.435,0,0,1,8.245-9.347v8.694l-7.372,4.607A9.363,9.363,0,0,1,282.493,159.473Z" transform="translate(-234.43 -147.694)" fill="#0f2771"/>
          <path id="Trazado_199383" data-name="Trazado 199383" d="M67.318,188.306H64.963v-16.49H62.607v16.49H60.251V175.35H57.9v12.956H55.54v-9.423H53.184v9.423H50.828v-5.889H48.473v5.889H46.117v2.356h21.2Z" transform="translate(-46.117 -167.105)" fill="#0f2771"/>
          <path id="Trazado_199384" data-name="Trazado 199384" d="M46.117,153.724H60.251v2.356H46.117Z" transform="translate(-46.117 -152.546)" fill="#0f2771"/>
          <path id="Trazado_199385" data-name="Trazado 199385" d="M46.117,286.4h2.356v2.356H46.117Z" transform="translate(-46.117 -259.307)" fill="#0f2771"/>
          <path id="Trazado_199386" data-name="Trazado 199386" d="M70.239,286.4H99.658v2.356H70.239Z" transform="translate(-65.528 -259.307)" fill="#0f2771"/>
          <path id="Trazado_199387" data-name="Trazado 199387" d="M46.117,322.581h2.356v2.356H46.117Z" transform="translate(-46.117 -288.423)" fill="#0f2771"/>
          <path id="Trazado_199388" data-name="Trazado 199388" d="M70.239,322.581H99.658v2.356H70.239Z" transform="translate(-65.528 -288.423)" fill="#0f2771"/>
          <path id="Trazado_199389" data-name="Trazado 199389" d="M46.117,358.765h2.356v2.356H46.117Z" transform="translate(-46.117 -317.54)" fill="#0f2771"/>
          <path id="Trazado_199390" data-name="Trazado 199390" d="M70.239,358.765H99.658v2.356H70.239Z" transform="translate(-65.528 -317.54)" fill="#0f2771"/>
          <path id="Trazado_199391" data-name="Trazado 199391" d="M46.117,394.949h2.356V397.3H46.117Z" transform="translate(-46.117 -346.657)" fill="#0f2771"/>
          <path id="Trazado_199392" data-name="Trazado 199392" d="M70.239,394.949H99.658V397.3H70.239Z" transform="translate(-65.528 -346.657)" fill="#0f2771"/>
          <path id="Trazado_199393" data-name="Trazado 199393" d="M46.117,430.949h2.356V433.3H46.117Z" transform="translate(-46.117 -375.626)" fill="#0f2771"/>
          <path id="Trazado_199394" data-name="Trazado 199394" d="M70.239,430.949H99.658V433.3H70.239Z" transform="translate(-65.528 -375.626)" fill="#0f2771"/>
        </g>
        <path id="Trazado_199395" data-name="Trazado 199395" d="M282.822,280.367H247.487a3.538,3.538,0,0,0-3.534,3.534v24.992a5,5,0,0,0,.9,3.277,3.525,3.525,0,0,0,2.631,1.178h13.568l5.278,6.6,5.278-6.6h11.212a3.538,3.538,0,0,0,3.534-3.534V283.9A3.538,3.538,0,0,0,282.822,280.367ZM284,309.813a1.179,1.179,0,0,1-1.178,1.178H270.478l-4.145,5.182-4.145-5.182h-14.7a1.179,1.179,0,0,1-1.178-1.178V283.9a1.179,1.179,0,0,1,1.178-1.178h35.336A1.179,1.179,0,0,1,284,283.9Z" transform="translate(-196.306 -225.608)" fill="#0f2771"/>
      </g>
    </g>
  </g>
</svg>
