<svg xmlns="http://www.w3.org/2000/svg" width="51" height="51" viewBox="0 0 51 51">
  <g id="customer_survey_questionnaire" data-name="customer survey questionnaire" transform="translate(-15.5 -15.5)">
    <g id="customer_survey_questionnaire-2" data-name="customer survey questionnaire" transform="translate(31 16)">
      <g id="Grupo_141153" data-name="Grupo 141153" transform="translate(0 0)">
        <g id="Grupo_141152" data-name="Grupo 141152">
          <path id="Trazado_199593" data-name="Trazado 199593" d="M194.167,66H162.5a.833.833,0,1,1,0-1.667h30.833V27.178l-9.512-9.512H160.833a.833.833,0,0,1,0-1.667h23.333a.839.839,0,0,1,.59.243l10,10a.839.839,0,0,1,.243.59V65.167A.834.834,0,0,1,194.167,66Z" transform="translate(-160 -16)" fill="#4dd0e1" stroke="#4dd0e1" stroke-width="1"/>
        </g>
      </g>
      <g id="Grupo_141190" data-name="Grupo 141190" transform="translate(5 8.196)">
        <g id="Grupo_141155" data-name="Grupo 141155" transform="translate(0 10)">
          <g id="Grupo_141154" data-name="Grupo 141154">
            <path id="Trazado_199594" data-name="Trazado 199594" d="M210.759,195.846h-.018a.828.828,0,0,1-.613-.29l-1.922-2.243a.833.833,0,1,1,1.265-1.083l1.318,1.537,2.65-2.822a.834.834,0,0,1,1.215,1.143l-3.287,3.5a.845.845,0,0,1-.608.26Z" transform="translate(-208.005 -190.682)" fill="#4dd0e1" stroke="#4dd0e1" stroke-width="1"/>
          </g>
        </g>
        <g id="Grupo_141157" data-name="Grupo 141157" transform="translate(0)">
          <g id="Grupo_141156" data-name="Grupo 141156">
            <path id="Trazado_199595" data-name="Trazado 199595" d="M210.759,99.846h-.018a.828.828,0,0,1-.613-.29l-1.922-2.243a.833.833,0,1,1,1.265-1.083l1.318,1.537,2.65-2.822a.834.834,0,0,1,1.215,1.143l-3.287,3.5a.845.845,0,0,1-.608.26Z" transform="translate(-208.005 -94.682)" fill="#4dd0e1" stroke="#4dd0e1" stroke-width="1"/>
          </g>
        </g>
        <g id="Grupo_141159" data-name="Grupo 141159" transform="translate(8.333 33.471)">
          <g id="Grupo_141158" data-name="Grupo 141158">
            <path id="Trazado_199596" data-name="Trazado 199596" d="M290.5,417.667h-1.667a.833.833,0,1,1,0-1.667H290.5a.833.833,0,1,1,0,1.667Z" transform="translate(-288 -416)" fill="#4dd0e1" stroke="#4dd0e1" stroke-width="1"/>
          </g>
        </g>
        <g id="Grupo_141161" data-name="Grupo 141161" transform="translate(8.333 30.137)">
          <g id="Grupo_141160" data-name="Grupo 141160">
            <path id="Trazado_199597" data-name="Trazado 199597" d="M293.833,385.667h-5a.833.833,0,1,1,0-1.667h5a.833.833,0,0,1,0,1.667Z" transform="translate(-288 -384)" fill="#4dd0e1" stroke="#4dd0e1" stroke-width="1"/>
          </g>
        </g>
        <g id="Grupo_141163" data-name="Grupo 141163" transform="translate(21.667 30.137)">
          <g id="Grupo_141162" data-name="Grupo 141162">
            <path id="Trazado_199598" data-name="Trazado 199598" d="M418.5,385.667h-1.667a.833.833,0,0,1,0-1.667H418.5a.833.833,0,0,1,0,1.667Z" transform="translate(-416 -384)" fill="#4dd0e1" stroke="#4dd0e1" stroke-width="1"/>
          </g>
        </g>
        <g id="Grupo_141165" data-name="Grupo 141165" transform="translate(15 20.137)">
          <g id="Grupo_141164" data-name="Grupo 141164">
            <path id="Trazado_199599" data-name="Trazado 199599" d="M361.167,289.667h-8.333a.833.833,0,1,1,0-1.667h8.333a.833.833,0,0,1,0,1.667Z" transform="translate(-352 -288)" fill="#4dd0e1" stroke="#4dd0e1" stroke-width="1"/>
          </g>
        </g>
        <g id="Grupo_141167" data-name="Grupo 141167" transform="translate(8.333 23.471)">
          <g id="Grupo_141166" data-name="Grupo 141166">
            <path id="Trazado_199600" data-name="Trazado 199600" d="M297.167,321.667h-8.333a.833.833,0,1,1,0-1.667h8.333a.833.833,0,1,1,0,1.667Z" transform="translate(-288 -320)" fill="#4dd0e1" stroke="#4dd0e1" stroke-width="1"/>
          </g>
        </g>
        <g id="Grupo_141169" data-name="Grupo 141169" transform="translate(8.333 20.137)">
          <g id="Grupo_141168" data-name="Grupo 141168">
            <path id="Trazado_199601" data-name="Trazado 199601" d="M292.167,289.667h-3.333a.833.833,0,1,1,0-1.667h3.333a.833.833,0,1,1,0,1.667Z" transform="translate(-288 -288)" fill="#4dd0e1" stroke="#4dd0e1" stroke-width="1"/>
          </g>
        </g>
        <g id="Grupo_141171" data-name="Grupo 141171" transform="translate(13.333 10.137)">
          <g id="Grupo_141170" data-name="Grupo 141170">
            <path id="Trazado_199602" data-name="Trazado 199602" d="M345.167,193.667h-8.333a.833.833,0,1,1,0-1.667h8.333a.833.833,0,1,1,0,1.667Z" transform="translate(-336 -192)" fill="#4dd0e1" stroke="#4dd0e1" stroke-width="1"/>
          </g>
        </g>
        <g id="Grupo_141173" data-name="Grupo 141173" transform="translate(8.333 13.471)">
          <g id="Grupo_141172" data-name="Grupo 141172">
            <path id="Trazado_199603" data-name="Trazado 199603" d="M295.5,225.667h-6.667a.833.833,0,1,1,0-1.667H295.5a.833.833,0,1,1,0,1.667Z" transform="translate(-288 -224)" fill="#4dd0e1" stroke="#4dd0e1" stroke-width="1"/>
          </g>
        </g>
        <g id="Grupo_141175" data-name="Grupo 141175" transform="translate(18.333 13.471)">
          <g id="Grupo_141174" data-name="Grupo 141174">
            <path id="Trazado_199604" data-name="Trazado 199604" d="M388.167,225.667h-3.333a.833.833,0,1,1,0-1.667h3.333a.833.833,0,1,1,0,1.667Z" transform="translate(-384 -224)" fill="#4dd0e1" stroke="#4dd0e1" stroke-width="1"/>
          </g>
        </g>
        <g id="Grupo_141177" data-name="Grupo 141177" transform="translate(13.333 33.471)">
          <g id="Grupo_141176" data-name="Grupo 141176">
            <path id="Trazado_199605" data-name="Trazado 199605" d="M340.167,417.667h-3.333a.833.833,0,1,1,0-1.667h3.333a.833.833,0,1,1,0,1.667Z" transform="translate(-336 -416)" fill="#4dd0e1" stroke="#4dd0e1" stroke-width="1"/>
          </g>
        </g>
        <g id="Grupo_141179" data-name="Grupo 141179" transform="translate(16.667 30.137)">
          <g id="Grupo_141178" data-name="Grupo 141178">
            <path id="Trazado_199606" data-name="Trazado 199606" d="M370.5,385.667h-1.667a.833.833,0,0,1,0-1.667H370.5a.833.833,0,0,1,0,1.667Z" transform="translate(-368 -384)" fill="#4dd0e1" stroke="#4dd0e1" stroke-width="1"/>
          </g>
        </g>
        <g id="Grupo_141181" data-name="Grupo 141181" transform="translate(8.333 10.137)">
          <g id="Grupo_141180" data-name="Grupo 141180">
            <path id="Trazado_199607" data-name="Trazado 199607" d="M290.5,193.667h-1.667a.833.833,0,1,1,0-1.667H290.5a.833.833,0,1,1,0,1.667Z" transform="translate(-288 -192)" fill="#4dd0e1" stroke="#4dd0e1" stroke-width="1"/>
          </g>
        </g>
        <g id="Grupo_141183" data-name="Grupo 141183" transform="translate(8.333 0.137)">
          <g id="Grupo_141182" data-name="Grupo 141182">
            <path id="Trazado_199608" data-name="Trazado 199608" d="M295.5,97.667h-6.667a.833.833,0,1,1,0-1.667H295.5a.833.833,0,1,1,0,1.667Z" transform="translate(-288 -96)" fill="#4dd0e1" stroke="#4dd0e1" stroke-width="1"/>
          </g>
        </g>
        <g id="Grupo_141185" data-name="Grupo 141185" transform="translate(8.333 3.471)">
          <g id="Grupo_141184" data-name="Grupo 141184">
            <path id="Trazado_199609" data-name="Trazado 199609" d="M292.167,129.667h-3.333a.833.833,0,1,1,0-1.667h3.333a.833.833,0,1,1,0,1.667Z" transform="translate(-288 -128)" fill="#4dd0e1" stroke="#4dd0e1" stroke-width="1"/>
          </g>
        </g>
        <g id="Grupo_141187" data-name="Grupo 141187" transform="translate(0 30.137)">
          <g id="Grupo_141186" data-name="Grupo 141186">
            <path id="Trazado_199610" data-name="Trazado 199610" d="M212.167,389h-3.333a.834.834,0,0,1-.833-.833v-3.333a.834.834,0,0,1,.833-.833h3.333a.834.834,0,0,1,.833.833v3.333A.834.834,0,0,1,212.167,389Zm-2.5-1.667h1.667v-1.667h-1.667Z" transform="translate(-208 -384)" fill="#4dd0e1" stroke="#4dd0e1" stroke-width="1"/>
          </g>
        </g>
        <g id="Grupo_141189" data-name="Grupo 141189" transform="translate(0 20.137)">
          <g id="Grupo_141188" data-name="Grupo 141188">
            <path id="Trazado_199611" data-name="Trazado 199611" d="M212.167,293h-3.333a.834.834,0,0,1-.833-.833v-3.333a.834.834,0,0,1,.833-.833h3.333a.834.834,0,0,1,.833.833v3.333A.834.834,0,0,1,212.167,293Zm-2.5-1.667h1.667v-1.667h-1.667Z" transform="translate(-208 -288)" fill="#4dd0e1" stroke="#4dd0e1" stroke-width="1"/>
          </g>
        </g>
      </g>
      <g id="Grupo_141194" data-name="Grupo 141194" transform="translate(23.333 0.001)">
        <g id="Grupo_141193" data-name="Grupo 141193">
          <g id="Grupo_141192" data-name="Grupo 141192">
            <g id="Grupo_141191" data-name="Grupo 141191">
              <path id="Trazado_199612" data-name="Trazado 199612" d="M394.795,27.677H384.83a.834.834,0,0,1-.833-.833V21.011a.833.833,0,1,1,1.667,0v5h7.123l-8.548-8.577a.834.834,0,0,1,1.182-1.178l9.965,10a.834.834,0,0,1-.59,1.422Z" transform="translate(-383.996 -16.012)" fill="#4dd0e1" stroke="#4dd0e1" stroke-width="1"/>
            </g>
          </g>
        </g>
      </g>
    </g>
    <g id="Grupo_141205" data-name="Grupo 141205" transform="translate(16 16)">
      <g id="Grupo_141196" data-name="Grupo 141196" transform="translate(0 18.333)">
        <g id="Grupo_141195" data-name="Grupo 141195">
          <path id="Trazado_199613" data-name="Trazado 199613" d="M18.5,205.333a2.5,2.5,0,0,1-2.5-2.5v-10a.833.833,0,0,1,1.667,0v10a.833.833,0,1,0,1.667,0v-10a.833.833,0,0,1,1.667,0v10A2.5,2.5,0,0,1,18.5,205.333Z" transform="translate(-16 -192)" fill="#4dd0e1" stroke="#4dd0e1" stroke-width="1"/>
        </g>
      </g>
      <g id="Grupo_141198" data-name="Grupo 141198" transform="translate(13.333 18.333)">
        <g id="Grupo_141197" data-name="Grupo 141197">
          <path id="Trazado_199614" data-name="Trazado 199614" d="M146.5,205.333a2.5,2.5,0,0,1-2.5-2.5v-10a.833.833,0,0,1,1.667,0v10a.833.833,0,1,0,1.667,0v-10a.833.833,0,0,1,1.667,0v10A2.5,2.5,0,0,1,146.5,205.333Z" transform="translate(-144 -192)" fill="#4dd0e1" stroke="#4dd0e1" stroke-width="1"/>
        </g>
      </g>
      <g id="Grupo_141199" data-name="Grupo 141199" transform="translate(4.167 0)">
        <path id="Trazado_199615" data-name="Trazado 199615" d="M61,26a5,5,0,1,1,5-5A5.006,5.006,0,0,1,61,26Zm0-8.333A3.333,3.333,0,1,0,64.333,21,3.337,3.337,0,0,0,61,17.667Z" transform="translate(-56 -16)" fill="#4dd0e1" stroke="#4dd0e1" stroke-width="1"/>
      </g>
      <g id="Grupo_141200" data-name="Grupo 141200" transform="translate(0 11.667)">
        <path id="Trazado_199616" data-name="Trazado 199616" d="M16.833,145.5a.834.834,0,0,1-.833-.833V133.833c0-2.7,2.185-5.833,5-5.833h6.667a.833.833,0,1,1,0,1.667H21c-1.8,0-3.333,2.292-3.333,4.167v10.833A.834.834,0,0,1,16.833,145.5Z" transform="translate(-16 -128)" fill="#4dd0e1" stroke="#4dd0e1" stroke-width="1"/>
      </g>
      <g id="Grupo_141201" data-name="Grupo 141201" transform="translate(3.333 25)">
        <path id="Trazado_199617" data-name="Trazado 199617" d="M48.833,281a.834.834,0,0,1-.833-.833V256.833a.833.833,0,0,1,1.667,0v23.333A.834.834,0,0,1,48.833,281Z" transform="translate(-48 -256)" fill="#4dd0e1" stroke="#4dd0e1" stroke-width="1"/>
      </g>
      <g id="Grupo_141202" data-name="Grupo 141202" transform="translate(5.833 11.667)">
        <path id="Trazado_199618" data-name="Trazado 199618" d="M83.667,145.5a.834.834,0,0,1-.833-.833V133.833c0-1.875-1.538-4.167-3.333-4.167H72.833a.833.833,0,1,1,0-1.667H79.5c2.815,0,5,3.135,5,5.833v10.833A.834.834,0,0,1,83.667,145.5Z" transform="translate(-72 -128)" fill="#4dd0e1" stroke="#4dd0e1" stroke-width="1"/>
      </g>
      <g id="Grupo_141203" data-name="Grupo 141203" transform="translate(13.333 25)">
        <path id="Trazado_199619" data-name="Trazado 199619" d="M144.833,281a.834.834,0,0,1-.833-.833V256.833a.833.833,0,0,1,1.667,0v23.333A.834.834,0,0,1,144.833,281Z" transform="translate(-144 -256)" fill="#4dd0e1" stroke="#4dd0e1" stroke-width="1"/>
      </g>
      <g id="Grupo_141204" data-name="Grupo 141204" transform="translate(8.333 31.667)">
        <path id="Trazado_199620" data-name="Trazado 199620" d="M96.833,338.333A.834.834,0,0,1,96,337.5V320.833a.833.833,0,0,1,1.667,0V337.5A.834.834,0,0,1,96.833,338.333Z" transform="translate(-96 -320)" fill="#4dd0e1" stroke="#4dd0e1" stroke-width="1"/>
      </g>
    </g>
  </g>
</svg>
