<svg xmlns="http://www.w3.org/2000/svg" width="105" height="105" viewBox="0 0 105 105">
  <g id="Grupo_141012" data-name="Grupo 141012" transform="translate(-600 -1745)">
    <path id="Trazado_194495" data-name="Trazado 194495" d="M52.5,0A52.5,52.5,0,1,1,0,52.5,52.5,52.5,0,0,1,52.5,0Z" transform="translate(600 1745)" fill="#bddcf6" opacity="0.74"/>
    <g id="Grupo_141011" data-name="Grupo 141011" transform="translate(614.172 1759.172)">
      <g id="layer1" transform="translate(0 0)">
        <path id="path31585" d="M26.577,103.99H96.145a2.571,2.571,0,0,1,2.577,2.577v46.379a2.571,2.571,0,0,1-2.577,2.576H26.577A2.571,2.571,0,0,1,24,152.946V106.567A2.571,2.571,0,0,1,26.577,103.99Z" transform="translate(-22.712 -89.813)" fill="#e7ebef"/>
        <path id="path31587" d="M56,135.99h64.415v36.072H56Z" transform="translate(-49.558 -116.66)" fill="#bddcf6"/>
        <path id="path31591" d="M207.189,434.3s-5.153-5.153-5.153-10.306H189.153c0,5.153-5.153,10.306-5.153,10.306Z" transform="translate(-156.945 -358.281)" fill="#e7ebef"/>
        <path id="path34069-6" d="M94,103.989a3.816,3.816,0,0,1,1.016,2.571v43.8a3.887,3.887,0,0,1-3.872,3.86H26.729a3.825,3.825,0,0,1-2.541-.984,2.561,2.561,0,0,0,2.546,2.28H96.3a2.571,2.571,0,0,0,2.577-2.577V106.566a2.571,2.571,0,0,0-2.577-2.577Z" transform="translate(-22.869 -89.813)" fill="#dbe1e7"/>
        <path id="path34071-9" d="M56,135.989v36.072h3.865v-33.5a1.288,1.288,0,0,1,1.283-1.293h59.259l.008,0v-1.281Z" transform="translate(-49.558 -116.659)" fill="#97b0c4"/>
        <path id="path34425-8-37" d="M211.609,424.005a10.348,10.348,0,0,1-.843,3.86h10.475a40.238,40.238,0,0,0,3.4,6.444h5.007s-5.151-5.151-5.153-10.3H211.609Z" transform="translate(-179.401 -358.294)" fill="#dbe1e7"/>
        <path id="path31595" d="M88,295.99h54.109v5.153H88Z" transform="translate(-76.405 -250.894)" fill="#fcb860"/>
        <path id="path31597" d="M184,87.927h11.595V47.99H184Z" transform="translate(-156.945 -42.832)" fill="#dbdeea"/>
        <path id="path31599" d="M123.595,23.989H112v43.8h11.595Z" transform="translate(-96.54 -22.696)" fill="#feca2e"/>
        <path id="path31603" d="M339.595,67.791H328v-43.8h11.595Z" transform="translate(-277.756 -22.696)" fill="#4dd0e1"/>
        <path id="path31605" d="M267.595,71.989H256v36.072h11.595Z" transform="translate(-217.351 -62.966)" fill="#98791b"/>
        <path id="path35027-4" d="M119.748,23.989V62.641a1.288,1.288,0,0,1-1.293,1.283H113.3a1.287,1.287,0,0,1-1.283-1.283v5.151h11.592v-43.8Z" transform="translate(-96.554 -22.696)" fill="#cba124"/>
        <path id="path35033-9" d="M335.748,24V62.659a1.288,1.288,0,0,1-1.293,1.283H329.3a1.287,1.287,0,0,1-1.283-1.283V67.8h11.592V24Z" transform="translate(-277.77 -22.709)" fill="#3da6b4"/>
        <path id="path35035-3" d="M263.727,72v30.919a1.288,1.288,0,0,1-1.293,1.283h-5.156A1.285,1.285,0,0,1,256,102.949v5.126h11.587V72Z" transform="translate(-217.351 -62.979)" fill="#cba124"/>
        <path id="path35037-4" d="M191.732,82.777a1.288,1.288,0,0,1-1.293,1.283h-5.156A1.287,1.287,0,0,1,184,82.777v5.151h11.595V47.99l-3.864,0Z" transform="translate(-156.945 -42.832)" fill="#abb3cd"/>
        <path id="path35053-2" d="M138.244,295.99v2.572a1.289,1.289,0,0,1-1.293,1.293H88v1.288h54.109V295.99Z" transform="translate(-76.405 -250.894)" fill="#fbb04f"/>
        <g id="Grupo_141010" data-name="Grupo 141010" transform="translate(15.46 9.023)">
          <path id="path31601" d="M112,77.143h11.595V71.99H112Z" transform="translate(-112 -71.99)" fill="#e7ebef"/>
          <path id="path31607" d="M339.595,215.989H328v5.153h11.595Z" transform="translate(-293.216 -192.8)" fill="#e7ebef"/>
          <path id="path31609" d="M195.6,215.99H184v5.153H195.6Z" transform="translate(-172.406 -192.801)" fill="#e7ebef"/>
          <path id="path31689" d="M267.6,119.99H256v5.153H267.6Z" transform="translate(-232.811 -112.26)" fill="#e7ebef"/>
        </g>
        <path id="path35031-9" d="M160,71.989v5.153h3.865V71.989Z" transform="translate(-136.81 -62.966)" fill="#dbe1e7"/>
        <path id="path35045-4" d="M376,215.989v5.153h3.865v-5.153Z" transform="translate(-318.026 -183.776)" fill="#dbe1e7"/>
        <path id="path35047-6" d="M232,215.99v5.153h3.865V215.99Z" transform="translate(-197.216 -183.777)" fill="#dbe1e7"/>
        <path id="path35049-8" d="M304,119.99v5.153h3.865V119.99Z" transform="translate(-257.621 -103.237)" fill="#dbe1e7"/>
        <path id="path3032-7" d="M31.456,15.958a1.288,1.288,0,0,0-1.283,1.293V28.846H19.864A3.885,3.885,0,0,0,16,32.711v2.577a1.288,1.288,0,1,0,2.577,0V32.711a1.258,1.258,0,0,1,1.288-1.288H30.173V34H22.441a1.288,1.288,0,0,0-1.288,1.288V71.36a1.288,1.288,0,0,0,1.288,1.288H86.856a1.288,1.288,0,0,0,1.288-1.288V35.288A1.289,1.289,0,0,0,86.856,34H79.131V31.423h10.3a1.258,1.258,0,0,1,1.288,1.288V79.09a1.258,1.258,0,0,1-1.288,1.288H19.864a1.258,1.258,0,0,1-1.288-1.288V46.882a1.288,1.288,0,1,0-2.577,0V79.09a3.885,3.885,0,0,0,3.865,3.865h26.9a16.9,16.9,0,0,1-4.273,7.727h-3.3a1.288,1.288,0,0,0,0,2.577H70.105a1.288,1.288,0,0,0,0-2.577h-3.3c-3.092-3.515-4.03-6.231-4.315-7.727H89.432A3.885,3.885,0,0,0,93.3,79.09V32.711a3.885,3.885,0,0,0-3.865-3.865h-10.3V17.251a1.288,1.288,0,0,0-1.283-1.293h-11.6a1.288,1.288,0,0,0-1.3,1.281V23.69H55.934V21.114a1.294,1.294,0,0,0-1.225-1.283H44.342V17.251a1.288,1.288,0,0,0-1.283-1.293h-11.6Zm1.293,2.579h9.016V23.69H32.75Zm34.779,0h9.026v28.35H67.529Zm-23.187,3.87h9.016v24.48H44.342ZM32.75,26.269h9.016v2.577H32.75Zm23.184,0H64.95v5.158H55.934ZM32.75,31.423h9.016v28.34H32.75ZM55.934,34H64.95v2.567H55.934Zm-32.2,2.572h6.444V59.763H27.6a1.288,1.288,0,0,0-1.3,1.281v5.168A1.288,1.288,0,0,0,27.594,67.5H81.7a1.288,1.288,0,0,0,1.293-1.283V61.056a1.288,1.288,0,0,0-1.283-1.293H79.131V36.576h6.437v33.5H23.729Zm-6.462,2.559A1.288,1.288,0,0,0,16,40.441v1.288a1.288,1.288,0,1,0,2.577,0V40.441A1.288,1.288,0,0,0,17.267,39.135Zm38.667.014H64.95V59.765H55.934ZM44.342,49.466h9.016v2.567H44.342Zm23.187,0h9.026v2.567H67.529ZM44.342,54.609h9.016v5.156H44.342Zm23.187,0h9.026v5.156H67.529ZM28.88,62.341H80.414V64.92H28.88ZM52.069,75.224a1.288,1.288,0,1,0,0,2.577h5.153a1.288,1.288,0,1,0,0-2.577Zm-2.657,7.732H59.894a16.549,16.549,0,0,0,3.571,7.727H45.824A16.253,16.253,0,0,0,49.412,82.956Z" transform="translate(-15.999 -15.958)"/>
      </g>
    </g>
  </g>
</svg>
