<svg xmlns="http://www.w3.org/2000/svg" width="190" height="115" viewBox="0 0 190 115">
  <g id="Grupo_141128" data-name="Grupo 141128" transform="translate(-180 -398)">
    <rect id="Rectángulo_41430" data-name="Rectángulo 41430" width="85" height="28" rx="14" transform="translate(285 405.5)" fill="#feca2e" opacity="0.2"/>
    <rect id="Rectángulo_41431" data-name="Rectángulo 41431" width="85" height="28" rx="14" transform="translate(180 466.5)" fill="#4dd0e1" opacity="0.2"/>
    <rect id="Rectángulo_43995" data-name="Rectángulo 43995" width="190" height="115" transform="translate(180 398)" fill="none"/>
    <g id="Grupo_141127" data-name="Grupo 141127" transform="translate(216.5 371.5)">
      <path id="Trazado_199424" data-name="Trazado 199424" d="M106.806,46.113h-3.6v-3.6A9.019,9.019,0,0,0,94.194,33.5h-16.5a9,9,0,0,0-6.84,3.146l-6.5,7.578a5.406,5.406,0,0,1-4.106,1.888H9.509A9.019,9.019,0,0,0,.5,55.122v46.847a9.019,9.019,0,0,0,9.009,9.009h3.6v3.6a9.019,9.019,0,0,0,9.009,9.009h1.8V131.7a1.8,1.8,0,0,0,1.8,1.8h19.82a1.8,1.8,0,0,0,1.8-1.8V123.59h5.405V131.7a1.8,1.8,0,0,0,1.8,1.8h19.82a1.8,1.8,0,0,0,1.8-1.8V123.59h5.405V131.7a1.8,1.8,0,0,0,1.8,1.8H103.2a1.8,1.8,0,0,0,1.8-1.8V123.59h1.8a9.019,9.019,0,0,0,9.009-9.009V55.122A9.019,9.019,0,0,0,106.806,46.113ZM13.113,67.734v39.64h-3.6A5.412,5.412,0,0,1,4.1,101.968V55.122a5.412,5.412,0,0,1,5.405-5.405H60.248a9,9,0,0,0,6.84-3.146l6.5-7.578A5.407,5.407,0,0,1,77.689,37.1h16.5A5.412,5.412,0,0,1,99.6,42.509v3.6H90.3a8.99,8.99,0,0,0-6.845,3.151l-6.488,7.571a5.392,5.392,0,0,1-4.108,1.89H22.122A9.019,9.019,0,0,0,13.113,67.734ZM43.743,129.9H27.527V113.68H43.743Zm28.829,0H56.356V113.68H72.572Zm28.829,0H85.185V113.68H101.4Zm10.811-15.315a5.412,5.412,0,0,1-5.405,5.405H105v-8.108a1.8,1.8,0,0,0-1.8-1.8H83.383a1.8,1.8,0,0,0-1.8,1.8v8.108H76.176v-8.108a1.8,1.8,0,0,0-1.8-1.8H54.554a1.8,1.8,0,0,0-1.8,1.8v8.108H47.347v-8.108a1.8,1.8,0,0,0-1.8-1.8H25.725a1.8,1.8,0,0,0-1.8,1.8v8.108h-1.8a5.412,5.412,0,0,1-5.405-5.405V67.734a5.412,5.412,0,0,1,5.405-5.405H72.86a8.99,8.99,0,0,0,6.845-3.151l6.488-7.571a5.392,5.392,0,0,1,4.108-1.89h16.5a5.412,5.412,0,0,1,5.405,5.405Z" fill="#0f2771"/>
      <path id="Trazado_199425" data-name="Trazado 199425" d="M128.8,407.808a1.8,1.8,0,0,0,2.5.5l1.7-1.135v1.139a1.8,1.8,0,1,0,3.6,0v-1.139l1.7,1.135a1.8,1.8,0,1,0,2-3l-2.256-1.5,2.256-1.5a1.8,1.8,0,0,0-2-3l-1.7,1.135V399.3a1.8,1.8,0,0,0-3.6,0v1.139l-1.7-1.135a1.8,1.8,0,0,0-2,3l2.256,1.5-2.256,1.5a1.8,1.8,0,0,0-.5,2.5Z" transform="translate(-99.172 -282.018)" fill="#0f2771"/>
      <path id="Trazado_199426" data-name="Trazado 199426" d="M256.8,407.808a1.8,1.8,0,0,0,2.5.5l1.7-1.135v1.139a1.8,1.8,0,1,0,3.6,0v-1.139l1.7,1.135a1.8,1.8,0,1,0,2-3l-2.256-1.5,2.256-1.5a1.8,1.8,0,1,0-2-3l-1.7,1.135V399.3a1.8,1.8,0,0,0-3.6,0v1.139l-1.7-1.135a1.8,1.8,0,0,0-2,3l2.256,1.5-2.256,1.5A1.8,1.8,0,0,0,256.8,407.808Z" transform="translate(-198.343 -282.018)" fill="#0f2771"/>
      <path id="Trazado_199427" data-name="Trazado 199427" d="M384.8,407.808a1.8,1.8,0,0,0,2.5.5l1.7-1.135v1.139a1.8,1.8,0,1,0,3.6,0v-1.139l1.7,1.135a1.8,1.8,0,0,0,2-3l-2.256-1.5,2.256-1.5a1.8,1.8,0,0,0-2-3l-1.7,1.135V399.3a1.8,1.8,0,0,0-3.6,0v1.139l-1.7-1.135a1.8,1.8,0,1,0-2,3l2.256,1.5-2.256,1.5A1.8,1.8,0,0,0,384.8,407.808Z" transform="translate(-297.514 -282.018)" fill="#0f2771"/>
      <path id="Trazado_199428" data-name="Trazado 199428" d="M160.608,193.716h43.243a8.108,8.108,0,0,0,0-16.216H160.608a8.108,8.108,0,0,0,0,16.216Zm0-12.613h43.243a4.5,4.5,0,1,1,0,9.009H160.608a4.5,4.5,0,0,1,0-9.009Z" transform="translate(-117.766 -111.568)" fill="#0f2771"/>
      <circle id="Elipse_5005" data-name="Elipse 5005" cx="2.703" cy="2.703" r="2.703" transform="translate(79.779 71.338)" fill="#0f2771"/>
      <circle id="Elipse_5006" data-name="Elipse 5006" cx="2.703" cy="2.703" r="2.703" transform="translate(70.77 71.338)" fill="#0f2771"/>
      <path id="Trazado_199429" data-name="Trazado 199429" d="M189.534,209.1h20.941a1.8,1.8,0,0,0,0-3.6H189.534a1.8,1.8,0,0,0,0,3.6Z" transform="translate(-145.063 -133.261)" fill="#0f2771"/>
      <path id="Trazado_199430" data-name="Trazado 199430" d="M207.959,273.748H180.932v-5.777a5.405,5.405,0,1,0-3.6,0v5.777H150.3a1.8,1.8,0,0,0-1.8,1.8v3.595a1.8,1.8,0,0,0,3.6,0v-1.793h25.225v1.8a1.8,1.8,0,0,0,3.6,0v-1.8h25.225v1.793a1.8,1.8,0,0,0,3.6,0V275.55a1.8,1.8,0,0,0-1.8-1.8ZM179.131,261.1a1.8,1.8,0,1,1-1.8,1.8A1.8,1.8,0,0,1,179.131,261.1Z" transform="translate(-114.667 -173.543)" fill="#0f2771"/>
      <path id="Trazado_199431" data-name="Trazado 199431" d="M93.905,177.5H90.3a1.8,1.8,0,0,0-1.8,1.8v3.6a1.8,1.8,0,1,0,3.6,0v-1.8h1.8a1.8,1.8,0,0,0,0-3.6Z" transform="translate(-68.18 -111.568)" fill="#0f2771"/>
      <path id="Trazado_199432" data-name="Trazado 199432" d="M90.3,217.5a1.8,1.8,0,0,0-1.8,1.8v7.207a1.8,1.8,0,1,0,3.6,0V219.3A1.8,1.8,0,0,0,90.3,217.5Z" transform="translate(-68.18 -142.559)" fill="#0f2771"/>
    </g>
  </g>
</svg>
