<svg xmlns="http://www.w3.org/2000/svg" width="100" height="90.703" viewBox="0 0 100 90.703">
  <g id="Grupo_141142" data-name="Grupo 141142" transform="translate(-206 -210.848)">
    <path id="Trazado_199525" data-name="Trazado 199525" d="M303.559,218H286.376v4.2a1.658,1.658,0,0,1-1.657,1.65h-47.7a7.717,7.717,0,0,1-3.109-.791l-7.687-4.187c-.439-.24-.635-.562-.592-.877H208.441a.979.979,0,0,0-.976.977v80.135a.979.979,0,0,0,.976.977h95.118a.979.979,0,0,0,.976-.977V218.975A.979.979,0,0,0,303.559,218Z" fill="#c1eff5"/>
    <path id="Trazado_199526" data-name="Trazado 199526" d="M267.074,281.2A11.077,11.077,0,1,1,256,270.01,11.135,11.135,0,0,1,267.074,281.2Z" fill="#ffc502"/>
    <path id="Trazado_199527" data-name="Trazado 199527" d="M239.234,281.2a11.078,11.078,0,1,1-11.077-11.192A11.135,11.135,0,0,1,239.234,281.2Z" fill="#89c947"/>
    <path id="Trazado_199528" data-name="Trazado 199528" d="M294.92,281.2a11.078,11.078,0,1,1-11.077-11.192A11.136,11.136,0,0,1,294.92,281.2Z" fill="#ef5050"/>
    <g id="Grupo_141143" data-name="Grupo 141143">
      <path id="Trazado_199529" data-name="Trazado 199529" d="M228.408,242.578a.587.587,0,0,1-.586.586H217.666a.587.587,0,0,1-.586-.586v-10.2a.587.587,0,0,1,.586-.586h10.156a.588.588,0,0,1,.586.586Z" fill="#fcdb67"/>
      <path id="Trazado_199530" data-name="Trazado 199530" d="M228.408,261.184a.588.588,0,0,1-.586.585H217.666a.587.587,0,0,1-.586-.585v-10.2a.587.587,0,0,1,.586-.586h10.156a.587.587,0,0,1,.586.586Z" fill="#fcdb67"/>
      <path id="Trazado_199531" data-name="Trazado 199531" d="M271.4,242.578a.587.587,0,0,1-.586.586H260.657a.587.587,0,0,1-.586-.586v-10.2a.587.587,0,0,1,.586-.586h10.155a.588.588,0,0,1,.586.586Z" fill="#fcdb67"/>
      <path id="Trazado_199532" data-name="Trazado 199532" d="M271.4,261.184a.588.588,0,0,1-.586.585H260.657a.587.587,0,0,1-.586-.585v-10.2a.587.587,0,0,1,.586-.586h10.155a.587.587,0,0,1,.586.586Z" fill="#fcdb67"/>
    </g>
    <path id="Trazado_199533" data-name="Trazado 199533" d="M284.719,212.313a1.659,1.659,0,0,1,1.657,1.65V222.2a1.659,1.659,0,0,1-1.657,1.651h-47.7a7.7,7.7,0,0,1-3.109-.792l-7.687-4.187c-.8-.436-.8-1.148,0-1.583l7.687-4.186a7.7,7.7,0,0,1,3.109-.792Z" fill="#ffc502"/>
    <path id="Trazado_199534" data-name="Trazado 199534" d="M237.688,212.313h-.668a7.7,7.7,0,0,0-3.109.792l-7.687,4.186c-.8.435-.8,1.147,0,1.583l7.687,4.187a7.7,7.7,0,0,0,3.109.792h.668Z" fill="#ffd5b3"/>
    <path id="Trazado_199535" data-name="Trazado 199535" d="M231.391,214.477l-5.167,2.814c-.8.435-.8,1.147,0,1.583l5.167,2.814Z" fill="#775436"/>
    <path id="Trazado_199536" data-name="Trazado 199536" d="M286.376,222.2v-8.239a1.659,1.659,0,0,0-1.657-1.65H276.77v11.54h7.949A1.659,1.659,0,0,0,286.376,222.2Z" fill="#fb8276"/>
    <path id="Trazado_199537" data-name="Trazado 199537" d="M303.559,216.533h-5.372a1.465,1.465,0,0,0,0,2.93h4.883v79.158H227.484a1.465,1.465,0,0,0,0,2.93h76.075A2.445,2.445,0,0,0,306,299.109V218.975A2.444,2.444,0,0,0,303.559,216.533Z"/>
    <path id="Trazado_199538" data-name="Trazado 199538" d="M220.453,298.621H208.93V219.463h15.735a2.868,2.868,0,0,0,.859.7l7.686,4.187a9.133,9.133,0,0,0,3.81.971h47.7a3.123,3.123,0,0,0,3.122-3.116v-2.739h3.511a1.465,1.465,0,0,0,0-2.93h-3.511v-2.57a3.122,3.122,0,0,0-3.122-3.115h-47.7a9.131,9.131,0,0,0-3.81.97l-7.687,4.187a2.979,2.979,0,0,0-.707.528H208.441A2.444,2.444,0,0,0,206,218.975v80.134a2.445,2.445,0,0,0,2.441,2.442h12.012a1.465,1.465,0,1,0,0-2.93Zm57.782-84.844h6.484a.194.194,0,0,1,.192.186V222.2a.194.194,0,0,1-.192.186h-6.484Zm-39.082,0H275.3v2.841H239.153Zm0,5.771H275.3v2.84H239.153Zm-6.3-4.2,1.757-.956a6.071,6.071,0,0,1,1.611-.524V222.3a6.2,6.2,0,0,1-1.612-.524l-1.756-.956Zm-2.929,1.6v2.28l-2.093-1.14Z"/>
    <path id="Trazado_199539" data-name="Trazado 199539" d="M256,293.859a12.5,12.5,0,0,0,11.982-8.91,1.465,1.465,0,0,0-2.8-.859A9.58,9.58,0,0,1,256,290.929a9.727,9.727,0,1,1,9.068-12.96,1.465,1.465,0,0,0,2.767-.963A12.566,12.566,0,1,0,256,293.859Z"/>
    <path id="Trazado_199540" data-name="Trazado 199540" d="M252.747,279.541v-1.152a1.465,1.465,0,0,0-2.93,0v1.152a1.465,1.465,0,1,0,2.93,0Z"/>
    <path id="Trazado_199541" data-name="Trazado 199541" d="M262.178,279.541v-1.152a1.465,1.465,0,1,0-2.929,0v1.152a1.465,1.465,0,1,0,2.929,0Z"/>
    <path id="Trazado_199542" data-name="Trazado 199542" d="M252.751,286.3h6.494a1.465,1.465,0,1,0,0-2.93h-6.494a1.465,1.465,0,1,0,0,2.93Z"/>
    <path id="Trazado_199543" data-name="Trazado 199543" d="M228.157,293.859A12.658,12.658,0,1,0,215.615,281.2,12.613,12.613,0,0,0,228.157,293.859Zm0-22.384a9.728,9.728,0,1,1-9.612,9.727A9.681,9.681,0,0,1,228.157,271.475Z"/>
    <path id="Trazado_199544" data-name="Trazado 199544" d="M223.442,281.006a1.464,1.464,0,0,0,1.464-1.465v-1.152a1.465,1.465,0,1,0-2.929,0v1.152A1.465,1.465,0,0,0,223.442,281.006Z"/>
    <path id="Trazado_199545" data-name="Trazado 199545" d="M232.873,281.006a1.464,1.464,0,0,0,1.465-1.465v-1.152a1.465,1.465,0,0,0-2.93,0v1.152A1.465,1.465,0,0,0,232.873,281.006Z"/>
    <path id="Trazado_199546" data-name="Trazado 199546" d="M223.166,283.878a5,5,0,0,0,9.983,0,1.465,1.465,0,1,0-2.929,0,2.1,2.1,0,0,1-4.124,0,1.465,1.465,0,0,0-2.93,0Z"/>
    <path id="Trazado_199547" data-name="Trazado 199547" d="M283.843,293.859A12.658,12.658,0,1,0,271.3,281.2,12.614,12.614,0,0,0,283.843,293.859Zm0-22.384a9.728,9.728,0,1,1-9.612,9.727A9.681,9.681,0,0,1,283.843,271.475Z"/>
    <path id="Trazado_199548" data-name="Trazado 199548" d="M279.127,281.006a1.464,1.464,0,0,0,1.465-1.465v-1.152a1.465,1.465,0,0,0-2.93,0v1.152A1.465,1.465,0,0,0,279.127,281.006Z"/>
    <path id="Trazado_199549" data-name="Trazado 199549" d="M288.559,281.006a1.464,1.464,0,0,0,1.465-1.465v-1.152a1.465,1.465,0,0,0-2.93,0v1.152A1.465,1.465,0,0,0,288.559,281.006Z"/>
    <path id="Trazado_199550" data-name="Trazado 199550" d="M278.852,286.426a1.465,1.465,0,1,0,2.929,0,2.1,2.1,0,0,1,4.125,0,1.464,1.464,0,1,0,2.929,0,5,5,0,0,0-9.983,0Z"/>
    <path id="Trazado_199551" data-name="Trazado 199551" d="M217.666,244.629h10.156a2.052,2.052,0,0,0,2.05-2.051v-8.455l.578-.582a1.464,1.464,0,0,0-1.077-2.495,2.041,2.041,0,0,0-1.551-.714H217.666a2.053,2.053,0,0,0-2.051,2.051v10.2A2.052,2.052,0,0,0,217.666,244.629Zm.879-11.368H226.6l-3.592,3.618-1.184-1.192a1.465,1.465,0,1,0-2.079,2.064l1.809,1.823a2.03,2.03,0,0,0,1.453.606h0a2.034,2.034,0,0,0,1.452-.6l2.484-2.5V241.7h-8.4Z"/>
    <path id="Trazado_199552" data-name="Trazado 199552" d="M234.476,236.547h17.453a1.465,1.465,0,0,0,0-2.93H234.476a1.465,1.465,0,0,0,0,2.93Z"/>
    <path id="Trazado_199553" data-name="Trazado 199553" d="M234.476,241.344h9.939a1.465,1.465,0,1,0,0-2.93h-9.939a1.465,1.465,0,1,0,0,2.93Z"/>
    <path id="Trazado_199554" data-name="Trazado 199554" d="M215.615,261.184a2.053,2.053,0,0,0,2.051,2.05h10.156a2.053,2.053,0,0,0,2.05-2.05v-10.2a2.053,2.053,0,0,0-2.05-2.051H217.666a2.053,2.053,0,0,0-2.051,2.051Zm2.93-9.318h8.4V260.3h-8.4Z"/>
    <path id="Trazado_199555" data-name="Trazado 199555" d="M234.476,255.152h17.453a1.465,1.465,0,1,0,0-2.93H234.476a1.465,1.465,0,1,0,0,2.93Z"/>
    <path id="Trazado_199556" data-name="Trazado 199556" d="M245.88,258.483a1.464,1.464,0,0,0-1.465-1.464h-9.939a1.464,1.464,0,1,0,0,2.929h9.939A1.466,1.466,0,0,0,245.88,258.483Z"/>
    <path id="Trazado_199557" data-name="Trazado 199557" d="M260.657,244.629h10.155a2.053,2.053,0,0,0,2.051-2.051v-10.2a2.053,2.053,0,0,0-2.051-2.051H260.657a2.053,2.053,0,0,0-2.051,2.051v10.2A2.053,2.053,0,0,0,260.657,244.629Zm.879-11.368h8.4V241.7h-8.4Z"/>
    <path id="Trazado_199558" data-name="Trazado 199558" d="M276,235.082a1.465,1.465,0,0,0,1.465,1.465H294.92a1.465,1.465,0,1,0,0-2.93H277.466A1.464,1.464,0,0,0,276,235.082Z"/>
    <path id="Trazado_199559" data-name="Trazado 199559" d="M277.466,241.344h9.94a1.465,1.465,0,0,0,0-2.93h-9.94a1.465,1.465,0,1,0,0,2.93Z"/>
    <path id="Trazado_199560" data-name="Trazado 199560" d="M272.863,261.184v-10.2a2.053,2.053,0,0,0-2.051-2.051H260.657a2.053,2.053,0,0,0-2.051,2.051v10.2a2.053,2.053,0,0,0,2.051,2.05h10.155A2.053,2.053,0,0,0,272.863,261.184Zm-2.929-.879h-8.4v-8.439h8.4Z"/>
    <path id="Trazado_199561" data-name="Trazado 199561" d="M294.92,252.222H277.467a1.465,1.465,0,0,0,0,2.93H294.92a1.465,1.465,0,1,0,0-2.93Z"/>
    <path id="Trazado_199562" data-name="Trazado 199562" d="M287.406,259.948a1.464,1.464,0,0,0,0-2.929h-9.94a1.464,1.464,0,1,0,0,2.929Z"/>
  </g>
</svg>
