<svg xmlns="http://www.w3.org/2000/svg" width="190" height="115" viewBox="0 0 190 115">
  <g id="Grupo_145972" data-name="Grupo 145972" transform="translate(-180 -4679)">
    <g id="Grupo_141241" data-name="Grupo 141241" transform="translate(0 906)">
      <rect id="Rectángulo_41430" data-name="Rectángulo 41430" width="85" height="28" rx="14" transform="translate(285 3780.5)" fill="#feca2e" opacity="0.2"/>
      <rect id="Rectángulo_41431" data-name="Rectángulo 41431" width="85" height="28" rx="14" transform="translate(180 3841.5)" fill="#4dd0e1" opacity="0.2"/>
    </g>
    <rect id="Rectángulo_43995" data-name="Rectángulo 43995" width="190" height="115" transform="translate(180 4679)" fill="none"/>
    <g id="coding-programing-layout-customize-web_design" data-name="coding-programing-layout-customize-web design" transform="translate(19 4480)">
      <path id="Trazado_200613" data-name="Trazado 200613" d="M301,206H211a5.015,5.015,0,0,0-5,5v90a5.015,5.015,0,0,0,5,5h90a5.015,5.015,0,0,0,5-5V211A5.015,5.015,0,0,0,301,206Zm-46.667,96.667H211A1.668,1.668,0,0,1,209.333,301V222.667h45ZM302.667,301A1.668,1.668,0,0,1,301,302.667H257.667v-3.334h40a1.666,1.666,0,0,0,1.666-1.666v-20A1.666,1.666,0,0,0,297.667,276h-40v-5h20a1.666,1.666,0,0,0,1.666-1.667v-20a1.666,1.666,0,0,0-1.666-1.666h-20v-25h45Zm-45-5V279.333H296V296Zm0-28.333V251H276v16.667Zm45-48.334H209.333V211A1.668,1.668,0,0,1,211,209.333h90A1.668,1.668,0,0,1,302.667,211Z" fill="#0f2771"/>
      <path id="Trazado_200614" data-name="Trazado 200614" d="M216,212.667h-1.667a1.666,1.666,0,0,0,0,3.333H216a1.666,1.666,0,1,0,0-3.333Z" fill="#0f2771"/>
      <path id="Trazado_200615" data-name="Trazado 200615" d="M222.667,212.667H221A1.666,1.666,0,1,0,221,216h1.667a1.666,1.666,0,0,0,0-3.333Z" fill="#0f2771"/>
      <path id="Trazado_200616" data-name="Trazado 200616" d="M229.333,212.667h-1.666a1.666,1.666,0,1,0,0,3.333h1.666a1.666,1.666,0,1,0,0-3.333Z" fill="#0f2771"/>
      <path id="Trazado_200617" data-name="Trazado 200617" d="M299.333,214.333a1.666,1.666,0,0,0-1.666-1.666H239.333a1.666,1.666,0,0,0,0,3.333h58.334A1.666,1.666,0,0,0,299.333,214.333Z" fill="#0f2771"/>
      <path id="Trazado_200618" data-name="Trazado 200618" d="M234.613,236.925a1.667,1.667,0,0,0,2.312.462h0l5-3.334a1.666,1.666,0,0,0,0-2.773l-5-3.333a1.667,1.667,0,1,0-1.85,2.773L238,232.667l-2.92,1.946a1.667,1.667,0,0,0-.468,2.31Z" fill="#0f2771"/>
      <path id="Trazado_200619" data-name="Trazado 200619" d="M213.408,234.053l5,3.334a1.667,1.667,0,1,0,1.85-2.774l-2.925-1.946,2.92-1.947a1.667,1.667,0,1,0-1.85-2.773l-5,3.333a1.666,1.666,0,0,0,0,2.773Z" fill="#0f2771"/>
      <path id="Trazado_200620" data-name="Trazado 200620" d="M223.5,239.113a1.645,1.645,0,0,0,.833.22,1.667,1.667,0,0,0,1.449-.833l6.666-11.667a1.666,1.666,0,1,0-2.854-1.721l-.039.068-6.667,11.667A1.666,1.666,0,0,0,223.5,239.113Z" fill="#0f2771"/>
      <path id="Trazado_200621" data-name="Trazado 200621" d="M214.333,246h3.334a1.666,1.666,0,0,0,0-3.333h-3.334a1.666,1.666,0,0,0,0,3.333Z" fill="#0f2771"/>
      <path id="Trazado_200622" data-name="Trazado 200622" d="M214.333,252.667h23.334a1.667,1.667,0,0,0,0-3.334H214.333a1.667,1.667,0,0,0,0,3.334Z" fill="#0f2771"/>
      <path id="Trazado_200623" data-name="Trazado 200623" d="M224.333,246h25a1.666,1.666,0,1,0,0-3.333h-25a1.666,1.666,0,0,0,0,3.333Z" fill="#0f2771"/>
      <path id="Trazado_200624" data-name="Trazado 200624" d="M214.333,272.667h3.334a1.667,1.667,0,0,0,0-3.334h-3.334a1.667,1.667,0,0,0,0,3.334Z" fill="#0f2771"/>
      <path id="Trazado_200625" data-name="Trazado 200625" d="M249.333,276h-35a1.667,1.667,0,0,0,0,3.333h35a1.667,1.667,0,1,0,0-3.333Z" fill="#0f2771"/>
      <path id="Trazado_200626" data-name="Trazado 200626" d="M237.667,269.333H224.333a1.667,1.667,0,0,0,0,3.334h13.334a1.667,1.667,0,0,0,0-3.334Z" fill="#0f2771"/>
      <path id="Trazado_200627" data-name="Trazado 200627" d="M214.333,292.667h3.334a1.667,1.667,0,0,0,0-3.334h-3.334a1.667,1.667,0,0,0,0,3.334Z" fill="#0f2771"/>
      <path id="Trazado_200628" data-name="Trazado 200628" d="M249.333,289.333h-25a1.667,1.667,0,0,0,0,3.334h25a1.667,1.667,0,1,0,0-3.334Z" fill="#0f2771"/>
      <path id="Trazado_200629" data-name="Trazado 200629" d="M214.333,266h13.334a1.667,1.667,0,0,0,0-3.333H214.333a1.667,1.667,0,0,0,0,3.333Z" fill="#0f2771"/>
      <path id="Trazado_200630" data-name="Trazado 200630" d="M237.667,262.667h-3.334a1.667,1.667,0,0,0,0,3.333h3.334a1.667,1.667,0,0,0,0-3.333Z" fill="#0f2771"/>
      <path id="Trazado_200631" data-name="Trazado 200631" d="M214.333,286h13.334a1.667,1.667,0,0,0,0-3.333H214.333a1.667,1.667,0,0,0,0,3.333Z" fill="#0f2771"/>
      <path id="Trazado_200632" data-name="Trazado 200632" d="M237.667,286a1.667,1.667,0,0,0,0-3.333h-3.334a1.667,1.667,0,0,0,0,3.333Z" fill="#0f2771"/>
      <path id="Trazado_200633" data-name="Trazado 200633" d="M227.667,296H214.333a1.667,1.667,0,0,0,0,3.333h13.334a1.667,1.667,0,0,0,0-3.333Z" fill="#0f2771"/>
      <path id="Trazado_200634" data-name="Trazado 200634" d="M237.667,296h-3.334a1.667,1.667,0,0,0,0,3.333h3.334a1.667,1.667,0,0,0,0-3.333Z" fill="#0f2771"/>
      <path id="Trazado_200635" data-name="Trazado 200635" d="M214.333,259.333h3.334a1.667,1.667,0,0,0,0-3.333h-3.334a1.667,1.667,0,0,0,0,3.333Z" fill="#0f2771"/>
      <path id="Trazado_200636" data-name="Trazado 200636" d="M249.333,257.667A1.666,1.666,0,0,0,247.667,256H224.333a1.667,1.667,0,0,0,0,3.333h23.334A1.666,1.666,0,0,0,249.333,257.667Z" fill="#0f2771"/>
      <path id="Trazado_200637" data-name="Trazado 200637" d="M262.667,241h31.666A1.667,1.667,0,0,0,296,239.333V231a1.667,1.667,0,0,0-1.667-1.667H262.667A1.667,1.667,0,0,0,261,231v8.333A1.667,1.667,0,0,0,262.667,241Zm1.666-8.333h28.334v5H264.333Z" fill="#0f2771"/>
      <path id="Trazado_200638" data-name="Trazado 200638" d="M282.667,249.333v20A1.666,1.666,0,0,0,284.333,271h13.334a1.666,1.666,0,0,0,1.666-1.667v-20a1.666,1.666,0,0,0-1.666-1.666H284.333A1.666,1.666,0,0,0,282.667,249.333ZM286,251h10v16.667H286Z" fill="#0f2771"/>
    </g>
  </g>
</svg>
