<svg id="Grupo_141135" data-name="Grupo 141135" xmlns="http://www.w3.org/2000/svg" width="98.36" height="100" viewBox="0 0 98.36 100">
  <g id="Grupo_141132" data-name="Grupo 141132">
    <path id="Trazado_199433" data-name="Trazado 199433" d="M176.06,0H123.586V13.793H172.78V86.207h22.957V0Z" transform="translate(-99.448)" fill="#e4f8fb"/>
    <g id="Grupo_141129" data-name="Grupo 141129" transform="translate(29.31 5.172)">
      <path id="Trazado_199434" data-name="Trazado 199434" d="M389.931,312.413H381.31a1.724,1.724,0,1,1,0-3.448h8.621a1.724,1.724,0,0,1,0,3.448" transform="translate(-334.758 -253.793)" fill="#c0c4bf"/>
      <path id="Trazado_199435" data-name="Trazado 199435" d="M396.827,391.861H381.31a1.724,1.724,0,1,1,0-3.448h15.517a1.724,1.724,0,0,1,0,3.448" transform="translate(-334.758 -317.723)" fill="#c0c4bf"/>
      <path id="Trazado_199436" data-name="Trazado 199436" d="M425.241,277.1H416.62a1.724,1.724,0,1,1,0-3.448h8.621a1.724,1.724,0,0,1,0,3.448" transform="translate(-363.172 -225.378)" fill="#c0c4bf"/>
      <path id="Trazado_199437" data-name="Trazado 199437" d="M335.242,29.93h-6.9a1.724,1.724,0,1,1,0-3.448h6.9a1.724,1.724,0,1,1,0,3.448" transform="translate(-292.138 -26.482)" fill="#c0c4bf"/>
      <path id="Trazado_199438" data-name="Trazado 199438" d="M158.69,29.93h-6.9a1.724,1.724,0,1,1,0-3.448h6.9a1.724,1.724,0,1,1,0,3.448" transform="translate(-150.069 -26.482)" fill="#c0c4bf"/>
      <path id="Trazado_199439" data-name="Trazado 199439" d="M418.137,29.93H407.792a1.724,1.724,0,1,1,0-3.448h10.345a1.724,1.724,0,0,1,0,3.448" transform="translate(-356.068 -26.482)" fill="#c0c4bf"/>
      <path id="Trazado_199440" data-name="Trazado 199440" d="M432.345,74.068h-6.9a1.724,1.724,0,0,1,0-3.448h6.9a1.724,1.724,0,0,1,0,3.448" transform="translate(-370.276 -61.999)" fill="#c0c4bf"/>
      <path id="Trazado_199441" data-name="Trazado 199441" d="M241.586,29.93H231.241a1.724,1.724,0,0,1,0-3.448h10.345a1.724,1.724,0,0,1,0,3.448" transform="translate(-214 -26.482)" fill="#c0c4bf"/>
      <path id="Trazado_199442" data-name="Trazado 199442" d="M396.827,356.551H381.31a1.724,1.724,0,1,1,0-3.448h15.517a1.724,1.724,0,0,1,0,3.448" transform="translate(-334.758 -289.31)" fill="#c0c4bf"/>
    </g>
    <path id="Trazado_199443" data-name="Trazado 199443" d="M388.414,130.483h15.517v-6.9H388.414Z" transform="translate(-312.552 -99.448)" fill="#4dd0e1"/>
    <path id="Trazado_199444" data-name="Trazado 199444" d="M388.414,209.931h15.517v-6.9H388.414Z" transform="translate(-312.552 -163.379)" fill="#bddcf6"/>
    <path id="Trazado_199445" data-name="Trazado 199445" d="M73.332,70.621H0v86.207H73.332V70.621Z" transform="translate(0 -56.828)" fill="#e4f8fb"/>
    <path id="Trazado_199446" data-name="Trazado 199446" d="M44.138,360H63.1v-6.9H44.138Z" transform="translate(-35.517 -284.138)" fill="#bddcf6"/>
    <path id="Trazado_199447" data-name="Trazado 199447" d="M44.138,439.448H63.1v-6.9H44.138Z" transform="translate(-35.517 -348.069)" fill="#3da6b4"/>
    <g id="Grupo_141130" data-name="Grupo 141130" transform="translate(37.931 67.241)">
      <path id="Trazado_199448" data-name="Trazado 199448" d="M220.483,347.723h-6.9a1.724,1.724,0,0,1,0-3.448h6.9a1.724,1.724,0,0,1,0,3.448" transform="translate(-208.414 -344.275)" fill="#bdc3c7"/>
      <path id="Trazado_199449" data-name="Trazado 199449" d="M216.62,383.033H195.93a1.724,1.724,0,0,1,0-3.448h20.69a1.724,1.724,0,0,1,0,3.448" transform="translate(-194.206 -372.689)" fill="#bdc3c7"/>
      <path id="Trazado_199450" data-name="Trazado 199450" d="M244.827,462.482H222.413a1.724,1.724,0,0,1,0-3.448h22.414a1.724,1.724,0,1,1,0,3.448" transform="translate(-215.517 -436.62)" fill="#bdc3c7"/>
      <path id="Trazado_199451" data-name="Trazado 199451" d="M294.551,347.723H284.206a1.724,1.724,0,0,1,0-3.448h10.345a1.724,1.724,0,0,1,0,3.448" transform="translate(-265.241 -344.275)" fill="#bdc3c7"/>
    </g>
    <path id="Trazado_199452" data-name="Trazado 199452" d="M44.138,121.655H63.1v-6.9H44.138Z" transform="translate(-35.517 -92.345)" fill="#feca2e"/>
    <path id="Trazado_199453" data-name="Trazado 199453" d="M209.31,427.171H178.275a1.724,1.724,0,0,1,0-3.448H209.31a1.724,1.724,0,0,1,0,3.448" transform="translate(-142.068 -340.965)" fill="#bdc3c7"/>
    <path id="Trazado_199454" data-name="Trazado 199454" d="M247.172,280.552h18.966v-6.9H247.172Z" transform="translate(-198.896 -220.207)" fill="#abb3cd"/>
    <path id="Trazado_199455" data-name="Trazado 199455" d="M247.172,201.1h18.966v-6.9H247.172Z" transform="translate(-198.896 -156.276)" fill="#feedb6"/>
    <g id="Grupo_141131" data-name="Grupo 141131" transform="translate(6.896 22.414)">
      <path id="Trazado_199456" data-name="Trazado 199456" d="M137.379,188.826H125.31a1.724,1.724,0,0,1,0-3.448h12.069a1.724,1.724,0,1,1,0,3.448" transform="translate(-106.345 -171.585)" fill="#bdc3c7"/>
      <path id="Trazado_199457" data-name="Trazado 199457" d="M98.206,224.137H72.344a1.724,1.724,0,1,1,0-3.448H98.206a1.724,1.724,0,1,1,0,3.448" transform="translate(-63.724 -199.999)" fill="#bdc3c7"/>
      <path id="Trazado_199458" data-name="Trazado 199458" d="M59.448,303.585H37.034a1.724,1.724,0,1,1,0-3.448H59.448a1.724,1.724,0,1,1,0,3.448" transform="translate(-35.31 -263.93)" fill="#bdc3c7"/>
      <path id="Trazado_199459" data-name="Trazado 199459" d="M47.379,188.826H37.034a1.724,1.724,0,1,1,0-3.448H47.379a1.724,1.724,0,1,1,0,3.448" transform="translate(-35.31 -171.585)" fill="#bdc3c7"/>
      <path id="Trazado_199460" data-name="Trazado 199460" d="M68.069,268.275H37.034a1.724,1.724,0,1,1,0-3.448H68.069a1.724,1.724,0,1,1,0,3.448" transform="translate(-35.31 -235.517)" fill="#bdc3c7"/>
      <path id="Trazado_199461" data-name="Trazado 199461" d="M262.689,118.206H248.9a1.724,1.724,0,0,1,0-3.448h13.793a1.724,1.724,0,1,1,0,3.448" transform="translate(-205.793 -114.758)" fill="#bdc3c7"/>
      <path id="Trazado_199462" data-name="Trazado 199462" d="M223.517,153.516H195.93a1.724,1.724,0,0,1,0-3.448h27.586a1.724,1.724,0,0,1,0,3.448" transform="translate(-163.172 -143.172)" fill="#bdc3c7"/>
      <path id="Trazado_199463" data-name="Trazado 199463" d="M178.069,118.206h-8.621a1.724,1.724,0,0,1,0-3.448h8.621a1.724,1.724,0,1,1,0,3.448" transform="translate(-141.862 -114.758)" fill="#bdc3c7"/>
    </g>
  </g>
  <g id="Grupo_141134" data-name="Grupo 141134">
    <g id="Grupo_141133" data-name="Grupo 141133">
      <path id="Trazado_199464" data-name="Trazado 199464" d="M3.279,149.115H72.131V70.427H3.279Zm70.492,3.279H1.639A1.639,1.639,0,0,1,0,150.755V68.787a1.639,1.639,0,0,1,1.639-1.639H73.77a1.64,1.64,0,0,1,1.639,1.639v81.967a1.64,1.64,0,0,1-1.639,1.639Z" transform="translate(0 -54.033)"/>
      <path id="Trazado_199465" data-name="Trazado 199465" d="M45.246,344.3H60v-3.279H45.246Zm16.393,3.279H43.606a1.639,1.639,0,0,1-1.639-1.639v-6.557a1.639,1.639,0,0,1,1.639-1.639H61.639a1.64,1.64,0,0,1,1.639,1.639v6.557a1.64,1.64,0,0,1-1.639,1.639Z" transform="translate(-33.77 -271.774)"/>
      <path id="Trazado_199466" data-name="Trazado 199466" d="M45.246,424.836H60v-3.279H45.246Zm16.393,3.279H43.606a1.639,1.639,0,0,1-1.639-1.639v-6.557a1.639,1.639,0,0,1,1.639-1.639H61.639a1.64,1.64,0,0,1,1.639,1.639v6.557a1.64,1.64,0,0,1-1.639,1.639Z" transform="translate(-33.77 -336.584)"/>
      <path id="Trazado_199467" data-name="Trazado 199467" d="M45.246,115.672H60v-3.279H45.246Zm16.393,3.279H43.606a1.639,1.639,0,0,1-1.639-1.639v-6.557a1.639,1.639,0,0,1,1.639-1.639H61.639a1.64,1.64,0,0,1,1.639,1.639v6.557a1.64,1.64,0,0,1-1.639,1.639Z" transform="translate(-33.77 -87.803)"/>
      <path id="Trazado_199468" data-name="Trazado 199468" d="M238.295,266.754h14.754v-3.279H238.295v3.279Zm16.393,3.279H236.655a1.639,1.639,0,0,1-1.639-1.639v-6.557a1.639,1.639,0,0,1,1.639-1.639h18.033a1.64,1.64,0,0,1,1.639,1.639v6.557a1.64,1.64,0,0,1-1.639,1.639Z" transform="translate(-189.114 -209.377)"/>
      <path id="Trazado_199469" data-name="Trazado 199469" d="M238.295,191.213h14.754v-3.279H238.295v3.279Zm16.393,3.279H236.655a1.639,1.639,0,0,1-1.639-1.639V186.3a1.639,1.639,0,0,1,1.639-1.639h18.033a1.64,1.64,0,0,1,1.639,1.639v6.557a1.64,1.64,0,0,1-1.639,1.639Z" transform="translate(-189.114 -148.59)"/>
      <path id="Trazado_199470" data-name="Trazado 199470" d="M380.591,124.066h11.475v-3.279H380.591Zm13.115,3.279H378.951a1.639,1.639,0,0,1-1.639-1.639v-6.557a1.639,1.639,0,0,1,1.639-1.639h14.754a1.64,1.64,0,0,1,1.639,1.639v6.557a1.64,1.64,0,0,1-1.639,1.639Z" transform="translate(-303.618 -94.558)"/>
      <path id="Trazado_199471" data-name="Trazado 199471" d="M380.591,199.607h11.475v-3.279H380.591Zm13.115,3.279H378.951a1.639,1.639,0,0,1-1.639-1.639v-6.557a1.639,1.639,0,0,1,1.639-1.639h14.754a1.64,1.64,0,0,1,1.639,1.639v6.557a1.64,1.64,0,0,1-1.639,1.639Z" transform="translate(-303.618 -155.345)"/>
      <path id="Trazado_199472" data-name="Trazado 199472" d="M169.964,81.967h19.672V3.279H120.784v9.836h47.541a1.639,1.639,0,0,1,1.639,1.639V81.967Zm21.311,3.279H168.325a1.639,1.639,0,0,1-1.639-1.639V16.393H119.144a1.639,1.639,0,0,1-1.639-1.639V1.639A1.639,1.639,0,0,1,119.144,0h72.131a1.639,1.639,0,0,1,1.639,1.639V83.606a1.639,1.639,0,0,1-1.639,1.639Z" transform="translate(-94.555)"/>
    </g>
  </g>
</svg>
