<svg xmlns="http://www.w3.org/2000/svg" width="71.484" height="100" viewBox="0 0 71.484 100">
  <g id="Grupo_141150" data-name="Grupo 141150" transform="translate(-220.258 -206)">
    <g id="Grupo_141148" data-name="Grupo 141148">
      <path id="Trazado_199563" data-name="Trazado 199563" d="M285.6,304.142l-59.441.034a3.906,3.906,0,0,1-3.906-3.907l.149-79.621c0-1.82.566-3.837,2.25-4.271a3.933,3.933,0,0,1,.977-.123H238.52l16.894,1.07,18.066-1.07h12.891a3.906,3.906,0,0,1,3.906,3.906v80.469a3.879,3.879,0,0,1-.123.976c-.433,1.685-2.734,2.537-4.554,2.537Z" fill="#abb3cd"/>
      <path id="Trazado_199564" data-name="Trazado 199564" d="M273.48,216.254v6.836a4.5,4.5,0,0,1-4.492,4.492H243.012a4.5,4.5,0,0,1-4.492-4.492v-6.836Z" fill="#7c8ab7"/>
      <path id="Trazado_199565" data-name="Trazado 199565" d="M290.154,301.605a3.906,3.906,0,0,1-3.783,2.93H225.629a3.905,3.905,0,0,1-3.906-3.906V220.16a3.907,3.907,0,0,1,2.929-3.783v84.252a.977.977,0,0,0,.977.976Z" fill="#7c8ab7"/>
      <path id="Trazado_199566" data-name="Trazado 199566" d="M283.165,298.383l-54.513.166a.976.976,0,0,1-.976-.977l.228-74.3a.977.977,0,0,1,.977-.977l1.631-.185h8.008l17.044,1.045,17.916-1.045h9.961a.977.977,0,0,1,.977.977v72.656l-.276,1.66a.977.977,0,0,1-.977.977Z" fill="#e8f3fc"/>
      <path id="Trazado_199567" data-name="Trazado 199567" d="M273.48,222.113v.977a4.5,4.5,0,0,1-4.492,4.492H243.012a4.5,4.5,0,0,1-4.492-4.492v-.977Z" fill="#e8e8e8"/>
      <path id="Trazado_199568" data-name="Trazado 199568" d="M284.418,295.746V297.7a.977.977,0,0,1-.977.977H228.559a.977.977,0,0,1-.977-.977V223.09a.977.977,0,0,1,.977-.977h1.953V295.16a.586.586,0,0,0,.586.586Z" fill="#e8e8e8"/>
      <path id="Trazado_199569" data-name="Trazado 199569" d="M261.078,212.348a4.885,4.885,0,0,0-3.515-4.689,5.4,5.4,0,0,0-6.176,4.761,1.081,1.081,0,0,1-1.051.9h-7.324a1.953,1.953,0,0,0-1.953,1.953v7.813a1.952,1.952,0,0,0,1.953,1.953h25.976a1.953,1.953,0,0,0,1.953-1.953v-7.813a1.953,1.953,0,0,0-1.953-1.953h-6.933a.976.976,0,0,1-.977-.976Z" fill="#feca2e"/>
      <path id="Trazado_199570" data-name="Trazado 199570" d="M257.562,207.66a4.883,4.883,0,0,0-3.515,4.688.973.973,0,0,1-.977.976h-2.734a.973.973,0,0,0,.976-.976,4.884,4.884,0,0,1,6.25-4.688Z" fill="#ffd064"/>
      <g id="Grupo_141147" data-name="Grupo 141147">
        <g id="Grupo_141146" data-name="Grupo 141146">
          <path id="Trazado_199571" data-name="Trazado 199571" d="M239.691,250.043h-3.906a.976.976,0,0,0-.976.977v3.906a.976.976,0,0,0,.976.976h3.906a.976.976,0,0,0,.977-.976V251.02A.976.976,0,0,0,239.691,250.043Z" fill="#4dd0e1"/>
          <path id="Trazado_199572" data-name="Trazado 199572" d="M239.691,261.762h-3.906a.976.976,0,0,0-.976.976v3.907a.976.976,0,0,0,.976.976h3.906a.976.976,0,0,0,.977-.976v-3.907A.976.976,0,0,0,239.691,261.762Z" fill="#4dd0e1"/>
          <path id="Trazado_199573" data-name="Trazado 199573" d="M239.691,273.48h-3.906a.977.977,0,0,0-.976.977v3.906a.976.976,0,0,0,.976.977h3.906a.976.976,0,0,0,.977-.977v-3.906A.977.977,0,0,0,239.691,273.48Z" fill="#4dd0e1"/>
        </g>
        <path id="Trazado_199574" data-name="Trazado 199574" d="M276.215,238.324h-40.43a.977.977,0,0,0-.976.977v3.906a.977.977,0,0,0,.976.977h40.43a.977.977,0,0,0,.976-.977V239.3A.977.977,0,0,0,276.215,238.324Z" fill="#feca2e"/>
      </g>
    </g>
    <g id="Grupo_141149" data-name="Grupo 141149">
      <path id="Trazado_199575" data-name="Trazado 199575" d="M286.371,214.789h-14a3.421,3.421,0,0,0-3.379-2.93h-6.464a6.348,6.348,0,0,0-12.658,0h-6.854a3.421,3.421,0,0,0-3.379,2.93h-14a5.377,5.377,0,0,0-5.371,5.371V255.8a1.465,1.465,0,1,0,2.929,0V220.16a2.445,2.445,0,0,1,2.442-2.441h13.965v2.929H228.559a2.445,2.445,0,0,0-2.442,2.442V297.7a2.444,2.444,0,0,0,2.442,2.442h54.882a2.444,2.444,0,0,0,2.442-2.442v-8.068a1.465,1.465,0,1,0-2.93,0v7.58H229.047V223.578h10.586a3.42,3.42,0,0,0,3.379,2.93h5.944a1.465,1.465,0,1,0,0-2.93h-5.944a.49.49,0,0,1-.489-.488v-7.813a.49.49,0,0,1,.489-.488h7.324a2.444,2.444,0,0,0,2.441-2.441,3.418,3.418,0,1,1,6.836,0,2.444,2.444,0,0,0,2.442,2.441h6.933a.49.49,0,0,1,.489.488v7.813a.49.49,0,0,1-.489.488H255.8a1.465,1.465,0,1,0,0,2.93h13.187a3.42,3.42,0,0,0,3.379-2.93h10.586V282.8a1.465,1.465,0,1,0,2.93,0V223.09a2.445,2.445,0,0,0-2.442-2.442H272.406v-2.929h13.965a2.444,2.444,0,0,1,2.441,2.441v80.469a2.444,2.444,0,0,1-2.441,2.441H225.629a2.445,2.445,0,0,1-2.442-2.441V262.62a1.465,1.465,0,1,0-2.929,0v38.009A5.377,5.377,0,0,0,225.629,306h60.742a5.377,5.377,0,0,0,5.371-5.371V220.16A5.377,5.377,0,0,0,286.371,214.789Z"/>
      <path id="Trazado_199576" data-name="Trazado 199576" d="M265.766,219.184a1.464,1.464,0,0,0-1.465-1.465H247.7a1.465,1.465,0,1,0,0,2.929h16.6A1.464,1.464,0,0,0,265.766,219.184Z"/>
      <path id="Trazado_199577" data-name="Trazado 199577" d="M235.785,257.367h3.906a2.444,2.444,0,0,0,2.442-2.441V251.02a2.444,2.444,0,0,0-2.442-2.442h-3.906a2.444,2.444,0,0,0-2.441,2.442v3.906A2.444,2.444,0,0,0,235.785,257.367Zm.488-5.859h2.93v2.93h-2.93Z"/>
      <path id="Trazado_199578" data-name="Trazado 199578" d="M233.344,266.645a2.444,2.444,0,0,0,2.441,2.441h3.906a2.444,2.444,0,0,0,2.442-2.441v-3.907a2.444,2.444,0,0,0-2.442-2.441h-3.906a2.444,2.444,0,0,0-2.441,2.441Zm2.929-3.418h2.93v2.929h-2.93Z"/>
      <path id="Trazado_199579" data-name="Trazado 199579" d="M233.344,278.363a2.444,2.444,0,0,0,2.441,2.442h3.906a2.444,2.444,0,0,0,2.442-2.442v-3.906a2.444,2.444,0,0,0-2.442-2.441h-3.906a2.444,2.444,0,0,0-2.441,2.441Zm2.929-3.418h2.93v2.93h-2.93Z"/>
      <path id="Trazado_199580" data-name="Trazado 199580" d="M278.656,239.3a2.444,2.444,0,0,0-2.441-2.442h-40.43a2.444,2.444,0,0,0-2.441,2.442v3.906a2.444,2.444,0,0,0,2.441,2.441h24.89a1.465,1.465,0,1,0,0-2.929h-24.4v-2.93h39.454v2.93H267.54a1.465,1.465,0,1,0,0,2.929h8.675a2.444,2.444,0,0,0,2.441-2.441Z"/>
      <path id="Trazado_199581" data-name="Trazado 199581" d="M267.23,233.93a1.465,1.465,0,1,0,0-2.93H244.77a1.465,1.465,0,1,0,0,2.93Z"/>
      <path id="Trazado_199582" data-name="Trazado 199582" d="M277.191,248.578H246.527a1.465,1.465,0,1,0,0,2.93h30.664a1.465,1.465,0,1,0,0-2.93Z"/>
      <path id="Trazado_199583" data-name="Trazado 199583" d="M246.527,257.367h11.524a1.465,1.465,0,1,0,0-2.929H246.527a1.465,1.465,0,1,0,0,2.929Z"/>
      <path id="Trazado_199584" data-name="Trazado 199584" d="M277.191,260.3H246.527a1.465,1.465,0,1,0,0,2.93h30.664a1.465,1.465,0,1,0,0-2.93Z"/>
      <path id="Trazado_199585" data-name="Trazado 199585" d="M246.527,269.086h21.412a1.465,1.465,0,1,0,0-2.93H246.527a1.465,1.465,0,0,0,0,2.93Z"/>
      <path id="Trazado_199586" data-name="Trazado 199586" d="M277.191,266.156H273.8a1.465,1.465,0,0,0,0,2.93h3.393a1.465,1.465,0,0,0,0-2.93Z"/>
      <path id="Trazado_199587" data-name="Trazado 199587" d="M246.527,274.945h6.336a1.465,1.465,0,0,0,0-2.929h-6.336a1.465,1.465,0,1,0,0,2.929Z"/>
      <path id="Trazado_199588" data-name="Trazado 199588" d="M277.191,272.016H258.722a1.465,1.465,0,1,0,0,2.929h18.469a1.465,1.465,0,1,0,0-2.929Z"/>
      <path id="Trazado_199589" data-name="Trazado 199589" d="M277.191,277.875H246.527a1.465,1.465,0,1,0,0,2.93h30.664a1.465,1.465,0,0,0,0-2.93Z"/>
      <path id="Trazado_199590" data-name="Trazado 199590" d="M277.191,283.734h-6.418a1.465,1.465,0,0,0,0,2.93h6.418a1.465,1.465,0,1,0,0-2.93Z"/>
      <path id="Trazado_199591" data-name="Trazado 199591" d="M234.809,286.664h30.1a1.465,1.465,0,0,0,0-2.93h-30.1a1.465,1.465,0,1,0,0,2.93Z"/>
      <path id="Trazado_199592" data-name="Trazado 199592" d="M260.59,292.523h16.6a1.465,1.465,0,1,0,0-2.929h-16.6a1.465,1.465,0,1,0,0,2.929Z"/>
    </g>
  </g>
</svg>
