<svg xmlns="http://www.w3.org/2000/svg" width="50.042" height="50" viewBox="0 0 50.042 50">
  <g id="Grupo_141206" data-name="Grupo 141206" transform="translate(-230.771 -231)" opacity="0.5">
    <g id="Grupo_141206-2" data-name="Grupo 141206">
      <circle id="Elipse_5007" data-name="Elipse 5007" cx="1.087" cy="1.087" r="1.087" transform="translate(256.858 257.087)" fill="#4dd0e1"/>
    </g>
    <g id="Grupo_141207" data-name="Grupo 141207">
      <path id="Trazado_199621" data-name="Trazado 199621" d="M246.307,245.9l2.174,2.174a1.086,1.086,0,0,0,1.537,0l4.347-4.348a1.087,1.087,0,0,0-1.537-1.537l-3.579,3.579-1.4-1.4a1.087,1.087,0,0,0-1.537,1.537Z" fill="#4dd0e1" fill-rule="evenodd"/>
    </g>
    <g id="Grupo_141208" data-name="Grupo 141208">
      <path id="Trazado_199622" data-name="Trazado 199622" d="M246.307,256.768l2.174,2.174a1.086,1.086,0,0,0,1.537,0l4.347-4.347a1.087,1.087,0,0,0-1.537-1.537l-3.579,3.579-1.4-1.4a1.086,1.086,0,0,0-1.537,1.536Z" fill="#4dd0e1" fill-rule="evenodd"/>
    </g>
    <g id="Grupo_141209" data-name="Grupo 141209">
      <path id="Trazado_199623" data-name="Trazado 199623" d="M257.945,244.043h10.869a1.087,1.087,0,1,0,0-2.173H257.945a1.087,1.087,0,1,0,0,2.173Z" fill="#4dd0e1" fill-rule="evenodd"/>
    </g>
    <g id="Grupo_141210" data-name="Grupo 141210">
      <path id="Trazado_199624" data-name="Trazado 199624" d="M257.945,254.913h4.39a1.087,1.087,0,1,0,0-2.174h-4.39a1.087,1.087,0,1,0,0,2.174Z" fill="#4dd0e1" fill-rule="evenodd"/>
    </g>
    <g id="Grupo_141211" data-name="Grupo 141211">
      <path id="Trazado_199625" data-name="Trazado 199625" d="M257.945,248.391h6.521a1.087,1.087,0,1,0,0-2.174h-6.521a1.087,1.087,0,0,0,0,2.174Z" fill="#4dd0e1" fill-rule="evenodd"/>
    </g>
    <g id="Grupo_141212" data-name="Grupo 141212">
      <path id="Trazado_199626" data-name="Trazado 199626" d="M241.64,253.826V238.065a.541.541,0,0,1,.544-.543h2.76a1.087,1.087,0,1,0,0-2.174h-2.76a2.716,2.716,0,0,0-2.718,2.717v15.761a1.087,1.087,0,0,0,2.174,0Z" fill="#4dd0e1" fill-rule="evenodd"/>
    </g>
    <path id="Trazado_199627" data-name="Trazado 199627" d="M261.206,235.348v-1.087a3.261,3.261,0,1,0-6.522,0v1.087h-5.393a1.087,1.087,0,0,0,0,2.174h24.415a.543.543,0,0,1,.543.543l.042,4.9a1.087,1.087,0,0,0,2.174-.019l-.042-4.892a2.718,2.718,0,0,0-2.717-2.707Zm-2.174-1.087a1.087,1.087,0,1,0-2.174,0v1.087h2.174Z" fill="#4dd0e1" fill-rule="evenodd"/>
    <g id="Grupo_141213" data-name="Grupo 141213">
      <path id="Trazado_199628" data-name="Trazado 199628" d="M274.291,271.211l-.042,7.072a.543.543,0,0,1-.543.543H253.639a1.087,1.087,0,0,0,0,2.174h20.067a2.718,2.718,0,0,0,2.717-2.717c0,.006.042-7.059.042-7.059a1.087,1.087,0,1,0-2.174-.013Z" fill="#4dd0e1" fill-rule="evenodd"/>
    </g>
    <path id="Trazado_199629" data-name="Trazado 199629" d="M235.307,270.2a5.437,5.437,0,0,0-4.536,5.361v2.718A2.716,2.716,0,0,0,233.488,281h14.131a2.717,2.717,0,0,0,2.717-2.717v-2.718A5.438,5.438,0,0,0,245.8,270.2a7.608,7.608,0,1,0-10.492,0Zm10.681,8.622h1.631a.543.543,0,0,0,.543-.543v-2.718A3.261,3.261,0,0,0,244.9,272.3h-8.7a3.261,3.261,0,0,0-3.261,3.261v2.718a.543.543,0,0,0,.543.543h1.631v-3.261a1.087,1.087,0,1,1,2.174,0v3.261h6.521v-3.261a1.087,1.087,0,1,1,2.174,0Zm-5.435-19.565a5.435,5.435,0,1,1-5.434,5.435A5.438,5.438,0,0,1,240.553,259.261Z" fill="#4dd0e1" fill-rule="evenodd"/>
    <path id="Trazado_199630" data-name="Trazado 199630" d="M274.133,247.013c-1.253,1.253-21.2,21.308-21.2,21.308a1.084,1.084,0,0,0-.315.765v4.348a1.086,1.086,0,0,0,1.087,1.087h4.347a1.088,1.088,0,0,0,.771-.321s9.969-10.034,16.573-16.667l.3.3a.543.543,0,0,1,0,.768l-4.216,4.216a2.717,2.717,0,0,0,0,3.843l1.021,1.02a1.087,1.087,0,1,0,1.537-1.537l-1.021-1.02a.544.544,0,0,1,0-.769l4.216-4.216a2.716,2.716,0,0,0,0-3.842l-.3-.3c1.273-1.278,2.345-2.353,3.086-3.094a2.72,2.72,0,0,0,0-3.843l-2.043-2.042A2.717,2.717,0,0,0,274.133,247.013Zm-5.209,8.307,2.811,2.81c-5.665,5.694-12.583,12.656-14.134,14.217h-2.808v-2.812C256.337,267.979,263.256,261.016,268.924,255.32Zm4.345,1.269-2.811-2.81c2.2-2.209,4.088-4.105,5.212-5.229a.543.543,0,0,1,.768,0l2.043,2.042a.544.544,0,0,1,0,.769C277.356,252.485,275.468,254.38,273.269,256.589Z" fill="#4dd0e1" fill-rule="evenodd"/>
  </g>
</svg>
