<svg xmlns="http://www.w3.org/2000/svg" width="190" height="115" viewBox="0 0 190 115">
  <g id="Grupo_141052" data-name="Grupo 141052" transform="translate(-180 -398)">
    <rect id="Rectángulo_41430" data-name="Rectángulo 41430" width="85" height="28" rx="14" transform="translate(285 405.5)" fill="#feca2e" opacity="0.2"/>
    <rect id="Rectángulo_41431" data-name="Rectángulo 41431" width="85" height="28" rx="14" transform="translate(180 466.5)" fill="#4dd0e1" opacity="0.2"/>
    <rect id="Rectángulo_43995" data-name="Rectángulo 43995" width="190" height="115" transform="translate(180 398)" fill="none"/>
    <g id="Grupo_141051" data-name="Grupo 141051" transform="translate(209 389)">
      <path id="Trazado_199405" data-name="Trazado 199405" d="M104.1,93.2a1.664,1.664,0,0,0-2.337-.166l-2.5,2.171L97.6,93.245a31.5,31.5,0,0,0,1.89-43.1,31.031,31.031,0,0,0-10.559-7.973V17.658A1.658,1.658,0,0,0,87.278,16H30.918a1.659,1.659,0,0,0-1.177.481L16.481,29.742A1.659,1.659,0,0,0,16,30.918V113.8a1.658,1.658,0,0,0,1.658,1.658h69.62a1.658,1.658,0,0,0,1.658-1.658V99.262a31.047,31.047,0,0,0,6.183-3.829l1.658,1.939-2.5,2.155a1.658,1.658,0,0,0-.166,2.337l9.747,11.288A6.63,6.63,0,1,0,113.8,104.5Zm-7.144-40.91A28.18,28.18,0,0,1,94.1,92.034l-.039.034-.879.68.315-5.47h2.072a1.658,1.658,0,0,0,1.658-1.658V65.729a1.658,1.658,0,0,0-1.658-1.658H87.278v-.166a8.288,8.288,0,0,0-3.187-16.267q-.358.07-.708.172a8.288,8.288,0,0,0-7.459-5.288A28.063,28.063,0,0,1,96.958,52.285ZM57.175,49.368a28.047,28.047,0,0,1,18.234-6.829,8.288,8.288,0,0,0-7.476,5.271,8.6,8.6,0,0,0-2.2-.315,8.288,8.288,0,0,0-1.658,16.41v.166H55.783a1.658,1.658,0,0,0-1.658,1.658V85.62a1.658,1.658,0,0,0,1.658,1.658h2.022l.332,5.47a28.949,28.949,0,0,1-3.8-3.63,28.179,28.179,0,0,1,2.9-39.746l0,0Zm26.787,1.774a4.793,4.793,0,0,1,1.658-.332,4.973,4.973,0,0,1,1.658,9.664A1.658,1.658,0,0,0,85.62,59.1H81.907a5.17,5.17,0,0,1-1.077-1.873A8.288,8.288,0,0,0,83.962,51.141ZM64.071,60.474a4.973,4.973,0,0,1,1.658-9.664,4.793,4.793,0,0,1,1.658.332,8.288,8.288,0,0,0,3.067,6.083A4.974,4.974,0,0,1,69.375,59.1H65.729A1.658,1.658,0,0,0,64.071,60.474Zm9.3-1.658a8.283,8.283,0,0,0,2.3.282,8.541,8.541,0,0,0,2.254-.348,2.978,2.978,0,0,0,.133.348H73.254Zm2.3-3.033a4.973,4.973,0,1,1,4.973-4.973A4.973,4.973,0,0,1,75.674,55.783Zm-14.09,39.3L61,85.521a1.658,1.658,0,0,0-1.658-1.558H57.44V67.386h6.63V80.647A1.658,1.658,0,0,0,65.729,82.3h1.989l.829,15.648A27.933,27.933,0,0,1,61.585,95.085Zm10.31,3.5L70.95,80.647a1.658,1.658,0,0,0-1.658-1.658H67.386V62.413H83.962V78.99H81.99a1.658,1.658,0,0,0-1.658,1.658l-.945,18.035A28.349,28.349,0,0,1,71.895,98.583ZM83.5,82.3H85.62a1.658,1.658,0,0,0,1.658-1.658V67.386h6.63V83.962H91.936a1.658,1.658,0,0,0-1.658,1.558L89.714,95.1a28.347,28.347,0,0,1-6.962,2.835ZM29.261,21.652v7.608H21.652Zm56.359,90.49h-66.3V32.576h11.6a1.658,1.658,0,0,0,1.658-1.658v-11.6H85.62V40.864a31.5,31.5,0,0,0-30.517,6,32.789,32.789,0,0,0-2.752,2.718l-5.5-6.3a4.806,4.806,0,0,0,.646-2.42,4.973,4.973,0,1,0-9.946,0,4.807,4.807,0,0,0,.663,2.42l-5.47,6.233a4.773,4.773,0,0,0-1.823-.365,4.973,4.973,0,1,0,4.31,2.553l5.454-6.233a4.776,4.776,0,0,0,1.84.365,4.972,4.972,0,0,0,1.84-.365L50.23,52.1a31.5,31.5,0,0,0-2.9,32.158l-4.807,8.106L30.67,73.155a1.714,1.714,0,0,0-2.8-.133l-1.923,2.652V35.891H22.63v71.278a1.658,1.658,0,0,0,1.658,1.658H82.3v-3.315H25.946V81.194l3.166-4.227L41.1,96.428a1.658,1.658,0,0,0,1.426.8h0a1.658,1.658,0,0,0,1.409-.812l5.222-8.736A30.631,30.631,0,0,0,51.8,91.289a31.5,31.5,0,0,0,33.815,9.25ZM40.864,40.864a1.658,1.658,0,1,1,1.658,1.658A1.658,1.658,0,0,1,40.864,40.864ZM32.576,54.125a1.658,1.658,0,1,1-1.658-1.658A1.658,1.658,0,0,1,32.576,54.125ZM111,111.33a3.315,3.315,0,0,1-4.674-.332l-8.653-10.045,4.973-4.326,8.669,9.946a3.315,3.315,0,0,1-.23,4.683Z" transform="translate(0 0)" fill="#0f2771"/>
    </g>
  </g>
</svg>
