<svg xmlns="http://www.w3.org/2000/svg" width="190" height="115" viewBox="0 0 190 115">
  <g id="Grupo_141242" data-name="Grupo 141242" transform="translate(-180 -3773)">
    <g id="Grupo_141241" data-name="Grupo 141241">
      <rect id="Rectángulo_41430" data-name="Rectángulo 41430" width="85" height="28" rx="14" transform="translate(285 3780.5)" fill="#feca2e" opacity="0.2"/>
      <rect id="Rectángulo_41431" data-name="Rectángulo 41431" width="85" height="28" rx="14" transform="translate(180 3841.5)" fill="#4dd0e1" opacity="0.2"/>
    </g>
    <rect id="Rectángulo_43995" data-name="Rectángulo 43995" width="190" height="115" transform="translate(180 3773)" fill="none"/>
    <g id="Grupo_141240" data-name="Grupo 141240" transform="translate(-212 -132)">
      <g id="Grupo_141239" data-name="Grupo 141239" transform="translate(231 3706)">
        <path id="Trazado_199631" data-name="Trazado 199631" d="M295.512,206.488a1.671,1.671,0,0,0-1.179-.488H281a1.667,1.667,0,0,0-1.667,1.667v26.666A1.667,1.667,0,0,0,281,236h10v5H257.667v-5h10a1.666,1.666,0,0,0,1.666-1.667V217.667a1.667,1.667,0,0,0-.488-1.179l-10-10a1.667,1.667,0,0,0-1.178-.488H244.333a1.666,1.666,0,0,0-1.666,1.667v26.666A1.666,1.666,0,0,0,244.333,236h10v5H221v-5h10a1.667,1.667,0,0,0,1.667-1.667V217.667a1.668,1.668,0,0,0-.489-1.179l-10-10A1.667,1.667,0,0,0,221,206H207.667A1.667,1.667,0,0,0,206,207.667v26.666A1.667,1.667,0,0,0,207.667,236h10v6.667a1.666,1.666,0,0,0,1.666,1.666h35v5H242.667A1.667,1.667,0,0,0,241,251v13.333A1.667,1.667,0,0,0,242.667,266h26.666A1.667,1.667,0,0,0,271,264.333v-5h13.333a8.333,8.333,0,1,1,0,16.667H276.69l2.155-2.155-2.357-2.357-5,5a1.667,1.667,0,0,0,0,2.357l5,5,2.357-2.357-2.155-2.155h7.643a11.667,11.667,0,1,0,0-23.333H271v-5a1.667,1.667,0,0,0-1.667-1.667H257.667v-5h35a1.666,1.666,0,0,0,1.666-1.666V236h10A1.667,1.667,0,0,0,306,234.333V217.667a1.671,1.671,0,0,0-.488-1.179ZM246,209.333h10.977L263.643,216h-4.31v-3.333H256v5a1.666,1.666,0,0,0,1.667,1.666H266v13.334H246Zm-36.667,0H220.31L226.977,216h-4.31v-3.333h-3.334v5A1.667,1.667,0,0,0,221,219.333h8.333v13.334h-20Zm58.334,53.334H244.333v-10h23.334Zm15-30V209.333h10.976L300.31,216H296v-3.333h-3.333v5a1.666,1.666,0,0,0,1.666,1.666h8.334v13.334Z" fill="#0f2771"/>
        <path id="Trazado_199632" data-name="Trazado 199632" d="M269.333,269.333H242.667A1.667,1.667,0,0,0,241,271v5H227.667a11.667,11.667,0,1,0,0,23.333h7.643l-2.155,2.155,2.357,2.357,5-5a1.667,1.667,0,0,0,0-2.357l-5-5-2.357,2.357L235.31,296h-7.643a8.333,8.333,0,1,1,0-16.667H241v5A1.667,1.667,0,0,0,242.667,286h26.666A1.667,1.667,0,0,0,271,284.333V271a1.667,1.667,0,0,0-1.667-1.667Zm-1.666,13.334H244.333v-10h23.334Z" fill="#0f2771"/>
        <path id="Trazado_199633" data-name="Trazado 199633" d="M242.667,306h26.666A1.667,1.667,0,0,0,271,304.333V291a1.667,1.667,0,0,0-1.667-1.667H242.667A1.667,1.667,0,0,0,241,291v13.333A1.667,1.667,0,0,0,242.667,306Zm1.666-13.333h23.334v10H244.333Z" fill="#0f2771"/>
      </g>
    </g>
  </g>
</svg>
